<mxfile host="app.diagrams.net" agent="Mozilla/5.0 (Windows NT 10.0; Win64; x64) AppleWebKit/537.36 (KHTML, like Gecko) Chrome/134.0.0.0 Safari/537.36" version="26.1.1">
  <diagram name="Trang-1" id="fC5rY1wkaEKotozQgeU-">
    <mxGraphModel dx="4274" dy="2102" grid="1" gridSize="10" guides="1" tooltips="1" connect="1" arrows="1" fold="1" page="1" pageScale="1" pageWidth="827" pageHeight="1169" math="0" shadow="0">
      <root>
        <mxCell id="0" />
        <mxCell id="1" parent="0" />
        <mxCell id="ERL9ZfKcZ3rXcQuw2cY3-17" style="edgeStyle=orthogonalEdgeStyle;rounded=0;orthogonalLoop=1;jettySize=auto;html=1;exitX=0.5;exitY=1;exitDx=0;exitDy=0;entryX=0.5;entryY=0;entryDx=0;entryDy=0;" parent="1" source="ERL9ZfKcZ3rXcQuw2cY3-1" target="ERL9ZfKcZ3rXcQuw2cY3-4" edge="1">
          <mxGeometry relative="1" as="geometry" />
        </mxCell>
        <mxCell id="ERL9ZfKcZ3rXcQuw2cY3-119" style="edgeStyle=orthogonalEdgeStyle;rounded=0;orthogonalLoop=1;jettySize=auto;html=1;exitX=1;exitY=0.5;exitDx=0;exitDy=0;entryX=0.5;entryY=0;entryDx=0;entryDy=0;" parent="1" source="ERL9ZfKcZ3rXcQuw2cY3-1" target="ERL9ZfKcZ3rXcQuw2cY3-73" edge="1">
          <mxGeometry relative="1" as="geometry" />
        </mxCell>
        <mxCell id="ERL9ZfKcZ3rXcQuw2cY3-121" style="edgeStyle=orthogonalEdgeStyle;rounded=0;orthogonalLoop=1;jettySize=auto;html=1;exitX=0;exitY=0.5;exitDx=0;exitDy=0;entryX=0.5;entryY=0;entryDx=0;entryDy=0;" parent="1" source="ERL9ZfKcZ3rXcQuw2cY3-1" target="ERL9ZfKcZ3rXcQuw2cY3-120" edge="1">
          <mxGeometry relative="1" as="geometry" />
        </mxCell>
        <mxCell id="ERL9ZfKcZ3rXcQuw2cY3-149" style="edgeStyle=orthogonalEdgeStyle;rounded=0;orthogonalLoop=1;jettySize=auto;html=1;exitX=0;exitY=0.75;exitDx=0;exitDy=0;entryX=0.5;entryY=0;entryDx=0;entryDy=0;" parent="1" source="ERL9ZfKcZ3rXcQuw2cY3-1" target="ERL9ZfKcZ3rXcQuw2cY3-137" edge="1">
          <mxGeometry relative="1" as="geometry" />
        </mxCell>
        <mxCell id="UCqszwud1Ir7xBhQG_wQ-17" style="edgeStyle=orthogonalEdgeStyle;rounded=0;orthogonalLoop=1;jettySize=auto;html=1;exitX=0;exitY=0;exitDx=0;exitDy=0;" edge="1" parent="1" source="ERL9ZfKcZ3rXcQuw2cY3-1">
          <mxGeometry relative="1" as="geometry">
            <mxPoint x="-460" y="650" as="targetPoint" />
          </mxGeometry>
        </mxCell>
        <mxCell id="UCqszwud1Ir7xBhQG_wQ-39" style="edgeStyle=orthogonalEdgeStyle;rounded=0;orthogonalLoop=1;jettySize=auto;html=1;exitX=0;exitY=0.25;exitDx=0;exitDy=0;entryX=0.5;entryY=0;entryDx=0;entryDy=0;" edge="1" parent="1" source="ERL9ZfKcZ3rXcQuw2cY3-1" target="UCqszwud1Ir7xBhQG_wQ-19">
          <mxGeometry relative="1" as="geometry" />
        </mxCell>
        <mxCell id="UCqszwud1Ir7xBhQG_wQ-73" style="edgeStyle=orthogonalEdgeStyle;rounded=0;orthogonalLoop=1;jettySize=auto;html=1;exitX=0.5;exitY=0;exitDx=0;exitDy=0;entryX=0.5;entryY=0;entryDx=0;entryDy=0;" edge="1" parent="1" source="ERL9ZfKcZ3rXcQuw2cY3-1" target="UCqszwud1Ir7xBhQG_wQ-56">
          <mxGeometry relative="1" as="geometry" />
        </mxCell>
        <mxCell id="UCqszwud1Ir7xBhQG_wQ-89" style="edgeStyle=orthogonalEdgeStyle;rounded=0;orthogonalLoop=1;jettySize=auto;html=1;exitX=0.75;exitY=0;exitDx=0;exitDy=0;entryX=0;entryY=0.25;entryDx=0;entryDy=0;" edge="1" parent="1" source="ERL9ZfKcZ3rXcQuw2cY3-1" target="UCqszwud1Ir7xBhQG_wQ-75">
          <mxGeometry relative="1" as="geometry" />
        </mxCell>
        <mxCell id="UCqszwud1Ir7xBhQG_wQ-105" style="edgeStyle=orthogonalEdgeStyle;rounded=0;orthogonalLoop=1;jettySize=auto;html=1;exitX=1;exitY=0;exitDx=0;exitDy=0;entryX=1;entryY=0.5;entryDx=0;entryDy=0;" edge="1" parent="1" source="ERL9ZfKcZ3rXcQuw2cY3-1" target="UCqszwud1Ir7xBhQG_wQ-91">
          <mxGeometry relative="1" as="geometry" />
        </mxCell>
        <mxCell id="UCqszwud1Ir7xBhQG_wQ-139" style="edgeStyle=orthogonalEdgeStyle;rounded=0;orthogonalLoop=1;jettySize=auto;html=1;exitX=0.25;exitY=0;exitDx=0;exitDy=0;entryX=0;entryY=0.5;entryDx=0;entryDy=0;" edge="1" parent="1" source="ERL9ZfKcZ3rXcQuw2cY3-1" target="UCqszwud1Ir7xBhQG_wQ-121">
          <mxGeometry relative="1" as="geometry" />
        </mxCell>
        <mxCell id="UCqszwud1Ir7xBhQG_wQ-140" style="edgeStyle=orthogonalEdgeStyle;rounded=0;orthogonalLoop=1;jettySize=auto;html=1;exitX=1;exitY=0.75;exitDx=0;exitDy=0;entryX=0;entryY=0.5;entryDx=0;entryDy=0;" edge="1" parent="1" source="ERL9ZfKcZ3rXcQuw2cY3-1" target="UCqszwud1Ir7xBhQG_wQ-131">
          <mxGeometry relative="1" as="geometry" />
        </mxCell>
        <mxCell id="UCqszwud1Ir7xBhQG_wQ-158" style="edgeStyle=orthogonalEdgeStyle;rounded=0;orthogonalLoop=1;jettySize=auto;html=1;exitX=0.75;exitY=0;exitDx=0;exitDy=0;entryX=1;entryY=0.5;entryDx=0;entryDy=0;" edge="1" parent="1" source="ERL9ZfKcZ3rXcQuw2cY3-1" target="UCqszwud1Ir7xBhQG_wQ-143">
          <mxGeometry relative="1" as="geometry" />
        </mxCell>
        <mxCell id="ERL9ZfKcZ3rXcQuw2cY3-1" value="MaterialApp" style="rounded=0;whiteSpace=wrap;html=1;" parent="1" vertex="1">
          <mxGeometry x="320" y="10" width="120" height="60" as="geometry" />
        </mxCell>
        <mxCell id="ERL9ZfKcZ3rXcQuw2cY3-19" style="edgeStyle=orthogonalEdgeStyle;rounded=0;orthogonalLoop=1;jettySize=auto;html=1;exitX=0;exitY=0.5;exitDx=0;exitDy=0;entryX=0.5;entryY=0;entryDx=0;entryDy=0;" parent="1" source="ERL9ZfKcZ3rXcQuw2cY3-2" edge="1">
          <mxGeometry relative="1" as="geometry">
            <mxPoint x="160" y="250" as="targetPoint" />
          </mxGeometry>
        </mxCell>
        <mxCell id="ERL9ZfKcZ3rXcQuw2cY3-21" style="edgeStyle=orthogonalEdgeStyle;rounded=0;orthogonalLoop=1;jettySize=auto;html=1;exitX=1;exitY=0.5;exitDx=0;exitDy=0;entryX=0.5;entryY=0;entryDx=0;entryDy=0;" parent="1" source="ERL9ZfKcZ3rXcQuw2cY3-2" target="ERL9ZfKcZ3rXcQuw2cY3-13" edge="1">
          <mxGeometry relative="1" as="geometry" />
        </mxCell>
        <mxCell id="ERL9ZfKcZ3rXcQuw2cY3-2" value="Scaffold" style="rounded=0;whiteSpace=wrap;html=1;" parent="1" vertex="1">
          <mxGeometry x="320" y="170" width="120" height="60" as="geometry" />
        </mxCell>
        <mxCell id="ERL9ZfKcZ3rXcQuw2cY3-22" style="edgeStyle=orthogonalEdgeStyle;rounded=0;orthogonalLoop=1;jettySize=auto;html=1;exitX=0.5;exitY=1;exitDx=0;exitDy=0;entryX=0.5;entryY=0;entryDx=0;entryDy=0;" parent="1" edge="1">
          <mxGeometry relative="1" as="geometry">
            <mxPoint x="160" y="310" as="sourcePoint" />
          </mxGeometry>
        </mxCell>
        <mxCell id="ERL9ZfKcZ3rXcQuw2cY3-18" style="edgeStyle=orthogonalEdgeStyle;rounded=0;orthogonalLoop=1;jettySize=auto;html=1;exitX=0.5;exitY=1;exitDx=0;exitDy=0;entryX=0.5;entryY=0;entryDx=0;entryDy=0;" parent="1" source="ERL9ZfKcZ3rXcQuw2cY3-4" target="ERL9ZfKcZ3rXcQuw2cY3-2" edge="1">
          <mxGeometry relative="1" as="geometry" />
        </mxCell>
        <mxCell id="ERL9ZfKcZ3rXcQuw2cY3-4" value="ChatHome" style="rounded=0;whiteSpace=wrap;html=1;" parent="1" vertex="1">
          <mxGeometry x="320" y="90" width="120" height="60" as="geometry" />
        </mxCell>
        <mxCell id="ERL9ZfKcZ3rXcQuw2cY3-23" style="edgeStyle=orthogonalEdgeStyle;rounded=0;orthogonalLoop=1;jettySize=auto;html=1;exitX=0.5;exitY=1;exitDx=0;exitDy=0;entryX=0.5;entryY=0;entryDx=0;entryDy=0;" parent="1" source="ERL9ZfKcZ3rXcQuw2cY3-6" target="ERL9ZfKcZ3rXcQuw2cY3-7" edge="1">
          <mxGeometry relative="1" as="geometry" />
        </mxCell>
        <mxCell id="ERL9ZfKcZ3rXcQuw2cY3-32" style="edgeStyle=orthogonalEdgeStyle;rounded=0;orthogonalLoop=1;jettySize=auto;html=1;exitX=1;exitY=0.5;exitDx=0;exitDy=0;entryX=0.5;entryY=0;entryDx=0;entryDy=0;" parent="1" source="ERL9ZfKcZ3rXcQuw2cY3-6" target="ERL9ZfKcZ3rXcQuw2cY3-8" edge="1">
          <mxGeometry relative="1" as="geometry" />
        </mxCell>
        <mxCell id="ERL9ZfKcZ3rXcQuw2cY3-6" value="Column" style="rounded=0;whiteSpace=wrap;html=1;" parent="1" vertex="1">
          <mxGeometry x="320" y="250" width="120" height="60" as="geometry" />
        </mxCell>
        <mxCell id="ERL9ZfKcZ3rXcQuw2cY3-24" style="edgeStyle=orthogonalEdgeStyle;rounded=0;orthogonalLoop=1;jettySize=auto;html=1;exitX=0.5;exitY=1;exitDx=0;exitDy=0;entryX=0.5;entryY=0;entryDx=0;entryDy=0;" parent="1" source="ERL9ZfKcZ3rXcQuw2cY3-7" target="ERL9ZfKcZ3rXcQuw2cY3-9" edge="1">
          <mxGeometry relative="1" as="geometry" />
        </mxCell>
        <mxCell id="ERL9ZfKcZ3rXcQuw2cY3-7" value="Expanded" style="rounded=0;whiteSpace=wrap;html=1;" parent="1" vertex="1">
          <mxGeometry x="320" y="330" width="120" height="60" as="geometry" />
        </mxCell>
        <mxCell id="ERL9ZfKcZ3rXcQuw2cY3-26" style="edgeStyle=orthogonalEdgeStyle;rounded=0;orthogonalLoop=1;jettySize=auto;html=1;exitX=0;exitY=0.5;exitDx=0;exitDy=0;entryX=0.25;entryY=0;entryDx=0;entryDy=0;" parent="1" source="ERL9ZfKcZ3rXcQuw2cY3-8" target="ERL9ZfKcZ3rXcQuw2cY3-11" edge="1">
          <mxGeometry relative="1" as="geometry" />
        </mxCell>
        <mxCell id="ERL9ZfKcZ3rXcQuw2cY3-8" value="ChatInput" style="rounded=0;whiteSpace=wrap;html=1;" parent="1" vertex="1">
          <mxGeometry x="550" y="330" width="120" height="60" as="geometry" />
        </mxCell>
        <mxCell id="ERL9ZfKcZ3rXcQuw2cY3-25" style="edgeStyle=orthogonalEdgeStyle;rounded=0;orthogonalLoop=1;jettySize=auto;html=1;exitX=0.5;exitY=1;exitDx=0;exitDy=0;entryX=0.5;entryY=0;entryDx=0;entryDy=0;" parent="1" source="ERL9ZfKcZ3rXcQuw2cY3-9" target="ERL9ZfKcZ3rXcQuw2cY3-10" edge="1">
          <mxGeometry relative="1" as="geometry" />
        </mxCell>
        <mxCell id="ERL9ZfKcZ3rXcQuw2cY3-9" value="ListView.Builder" style="rounded=0;whiteSpace=wrap;html=1;" parent="1" vertex="1">
          <mxGeometry x="320" y="410" width="120" height="60" as="geometry" />
        </mxCell>
        <mxCell id="ERL9ZfKcZ3rXcQuw2cY3-10" value="ChatMessage" style="rounded=0;whiteSpace=wrap;html=1;" parent="1" vertex="1">
          <mxGeometry x="320" y="490" width="120" height="60" as="geometry" />
        </mxCell>
        <mxCell id="ERL9ZfKcZ3rXcQuw2cY3-11" value="TextField" style="rounded=0;whiteSpace=wrap;html=1;" parent="1" vertex="1">
          <mxGeometry x="470" y="410" width="120" height="60" as="geometry" />
        </mxCell>
        <mxCell id="ERL9ZfKcZ3rXcQuw2cY3-12" value="CustomButton" style="rounded=0;whiteSpace=wrap;html=1;" parent="1" vertex="1">
          <mxGeometry x="640" y="410" width="120" height="60" as="geometry" />
        </mxCell>
        <mxCell id="ERL9ZfKcZ3rXcQuw2cY3-29" style="edgeStyle=orthogonalEdgeStyle;rounded=0;orthogonalLoop=1;jettySize=auto;html=1;exitX=0.5;exitY=1;exitDx=0;exitDy=0;entryX=0.25;entryY=0;entryDx=0;entryDy=0;" parent="1" source="ERL9ZfKcZ3rXcQuw2cY3-13" target="ERL9ZfKcZ3rXcQuw2cY3-15" edge="1">
          <mxGeometry relative="1" as="geometry" />
        </mxCell>
        <mxCell id="ERL9ZfKcZ3rXcQuw2cY3-13" value="BottomNavBar" style="rounded=0;whiteSpace=wrap;html=1;" parent="1" vertex="1">
          <mxGeometry x="860" y="250" width="120" height="60" as="geometry" />
        </mxCell>
        <mxCell id="ERL9ZfKcZ3rXcQuw2cY3-14" value="Icon" style="rounded=0;whiteSpace=wrap;html=1;" parent="1" vertex="1">
          <mxGeometry x="760" y="330" width="120" height="60" as="geometry" />
        </mxCell>
        <mxCell id="ERL9ZfKcZ3rXcQuw2cY3-15" value="Icon" style="rounded=0;whiteSpace=wrap;html=1;" parent="1" vertex="1">
          <mxGeometry x="900" y="330" width="120" height="60" as="geometry" />
        </mxCell>
        <mxCell id="ERL9ZfKcZ3rXcQuw2cY3-16" value="Icon" style="rounded=0;whiteSpace=wrap;html=1;" parent="1" vertex="1">
          <mxGeometry x="1040" y="330" width="120" height="60" as="geometry" />
        </mxCell>
        <mxCell id="ERL9ZfKcZ3rXcQuw2cY3-20" style="edgeStyle=orthogonalEdgeStyle;rounded=0;orthogonalLoop=1;jettySize=auto;html=1;exitX=0.5;exitY=1;exitDx=0;exitDy=0;entryX=0.567;entryY=-0.033;entryDx=0;entryDy=0;entryPerimeter=0;" parent="1" source="ERL9ZfKcZ3rXcQuw2cY3-2" target="ERL9ZfKcZ3rXcQuw2cY3-6" edge="1">
          <mxGeometry relative="1" as="geometry" />
        </mxCell>
        <mxCell id="ERL9ZfKcZ3rXcQuw2cY3-27" style="edgeStyle=orthogonalEdgeStyle;rounded=0;orthogonalLoop=1;jettySize=auto;html=1;exitX=1;exitY=0.5;exitDx=0;exitDy=0;entryX=0.675;entryY=0.05;entryDx=0;entryDy=0;entryPerimeter=0;" parent="1" source="ERL9ZfKcZ3rXcQuw2cY3-8" target="ERL9ZfKcZ3rXcQuw2cY3-12" edge="1">
          <mxGeometry relative="1" as="geometry" />
        </mxCell>
        <mxCell id="ERL9ZfKcZ3rXcQuw2cY3-28" style="edgeStyle=orthogonalEdgeStyle;rounded=0;orthogonalLoop=1;jettySize=auto;html=1;exitX=0;exitY=0.5;exitDx=0;exitDy=0;entryX=0.333;entryY=0.017;entryDx=0;entryDy=0;entryPerimeter=0;" parent="1" source="ERL9ZfKcZ3rXcQuw2cY3-13" target="ERL9ZfKcZ3rXcQuw2cY3-14" edge="1">
          <mxGeometry relative="1" as="geometry" />
        </mxCell>
        <mxCell id="ERL9ZfKcZ3rXcQuw2cY3-30" style="edgeStyle=orthogonalEdgeStyle;rounded=0;orthogonalLoop=1;jettySize=auto;html=1;exitX=1;exitY=0.5;exitDx=0;exitDy=0;entryX=0.567;entryY=0;entryDx=0;entryDy=0;entryPerimeter=0;" parent="1" source="ERL9ZfKcZ3rXcQuw2cY3-13" target="ERL9ZfKcZ3rXcQuw2cY3-16" edge="1">
          <mxGeometry relative="1" as="geometry" />
        </mxCell>
        <mxCell id="ERL9ZfKcZ3rXcQuw2cY3-39" style="edgeStyle=orthogonalEdgeStyle;rounded=0;orthogonalLoop=1;jettySize=auto;html=1;exitX=0.5;exitY=1;exitDx=0;exitDy=0;entryX=0.5;entryY=0;entryDx=0;entryDy=0;" parent="1" edge="1">
          <mxGeometry relative="1" as="geometry">
            <mxPoint x="1470" y="170" as="targetPoint" />
          </mxGeometry>
        </mxCell>
        <mxCell id="ERL9ZfKcZ3rXcQuw2cY3-38" style="edgeStyle=orthogonalEdgeStyle;rounded=0;orthogonalLoop=1;jettySize=auto;html=1;exitX=0;exitY=0.5;exitDx=0;exitDy=0;entryX=1;entryY=0.5;entryDx=0;entryDy=0;" parent="1" edge="1">
          <mxGeometry relative="1" as="geometry">
            <mxPoint x="1320" y="200" as="targetPoint" />
          </mxGeometry>
        </mxCell>
        <mxCell id="ERL9ZfKcZ3rXcQuw2cY3-123" style="edgeStyle=orthogonalEdgeStyle;rounded=0;orthogonalLoop=1;jettySize=auto;html=1;exitX=0.5;exitY=1;exitDx=0;exitDy=0;entryX=0.5;entryY=0;entryDx=0;entryDy=0;" parent="1" source="ERL9ZfKcZ3rXcQuw2cY3-34" target="ERL9ZfKcZ3rXcQuw2cY3-35" edge="1">
          <mxGeometry relative="1" as="geometry" />
        </mxCell>
        <mxCell id="ERL9ZfKcZ3rXcQuw2cY3-34" value="AppBar" style="rounded=0;whiteSpace=wrap;html=1;" parent="1" vertex="1">
          <mxGeometry x="100" y="250" width="120" height="60" as="geometry" />
        </mxCell>
        <mxCell id="ERL9ZfKcZ3rXcQuw2cY3-35" value="Text" style="rounded=0;whiteSpace=wrap;html=1;" parent="1" vertex="1">
          <mxGeometry x="100" y="330" width="120" height="60" as="geometry" />
        </mxCell>
        <mxCell id="ERL9ZfKcZ3rXcQuw2cY3-40" style="edgeStyle=orthogonalEdgeStyle;rounded=0;orthogonalLoop=1;jettySize=auto;html=1;exitX=0.5;exitY=1;exitDx=0;exitDy=0;entryX=0.5;entryY=0;entryDx=0;entryDy=0;" parent="1" edge="1">
          <mxGeometry relative="1" as="geometry">
            <mxPoint x="1260" y="230" as="sourcePoint" />
          </mxGeometry>
        </mxCell>
        <mxCell id="ERL9ZfKcZ3rXcQuw2cY3-69" style="edgeStyle=orthogonalEdgeStyle;rounded=0;orthogonalLoop=1;jettySize=auto;html=1;exitX=0;exitY=0.5;exitDx=0;exitDy=0;entryX=1;entryY=0.5;entryDx=0;entryDy=0;" parent="1" source="ERL9ZfKcZ3rXcQuw2cY3-71" target="ERL9ZfKcZ3rXcQuw2cY3-95" edge="1">
          <mxGeometry relative="1" as="geometry">
            <mxPoint x="1250" y="270" as="targetPoint" />
          </mxGeometry>
        </mxCell>
        <mxCell id="ERL9ZfKcZ3rXcQuw2cY3-70" style="edgeStyle=orthogonalEdgeStyle;rounded=0;orthogonalLoop=1;jettySize=auto;html=1;exitX=1;exitY=0.5;exitDx=0;exitDy=0;entryX=0.5;entryY=0;entryDx=0;entryDy=0;" parent="1" source="ERL9ZfKcZ3rXcQuw2cY3-71" target="ERL9ZfKcZ3rXcQuw2cY3-87" edge="1">
          <mxGeometry relative="1" as="geometry" />
        </mxCell>
        <mxCell id="ERL9ZfKcZ3rXcQuw2cY3-71" value="Scaffold" style="rounded=0;whiteSpace=wrap;html=1;" parent="1" vertex="1">
          <mxGeometry x="1410" y="190" width="120" height="60" as="geometry" />
        </mxCell>
        <mxCell id="ERL9ZfKcZ3rXcQuw2cY3-72" style="edgeStyle=orthogonalEdgeStyle;rounded=0;orthogonalLoop=1;jettySize=auto;html=1;exitX=0.5;exitY=1;exitDx=0;exitDy=0;entryX=0.5;entryY=0;entryDx=0;entryDy=0;" parent="1" source="ERL9ZfKcZ3rXcQuw2cY3-73" target="ERL9ZfKcZ3rXcQuw2cY3-71" edge="1">
          <mxGeometry relative="1" as="geometry" />
        </mxCell>
        <mxCell id="ERL9ZfKcZ3rXcQuw2cY3-73" value="ChatScreen" style="rounded=0;whiteSpace=wrap;html=1;" parent="1" vertex="1">
          <mxGeometry x="1410" y="110" width="120" height="60" as="geometry" />
        </mxCell>
        <mxCell id="ERL9ZfKcZ3rXcQuw2cY3-74" style="edgeStyle=orthogonalEdgeStyle;rounded=0;orthogonalLoop=1;jettySize=auto;html=1;exitX=0.5;exitY=1;exitDx=0;exitDy=0;entryX=0.5;entryY=0;entryDx=0;entryDy=0;" parent="1" source="ERL9ZfKcZ3rXcQuw2cY3-76" target="ERL9ZfKcZ3rXcQuw2cY3-78" edge="1">
          <mxGeometry relative="1" as="geometry" />
        </mxCell>
        <mxCell id="ERL9ZfKcZ3rXcQuw2cY3-75" style="edgeStyle=orthogonalEdgeStyle;rounded=0;orthogonalLoop=1;jettySize=auto;html=1;exitX=1;exitY=0.5;exitDx=0;exitDy=0;entryX=0.5;entryY=0;entryDx=0;entryDy=0;" parent="1" source="ERL9ZfKcZ3rXcQuw2cY3-76" target="ERL9ZfKcZ3rXcQuw2cY3-80" edge="1">
          <mxGeometry relative="1" as="geometry" />
        </mxCell>
        <mxCell id="ERL9ZfKcZ3rXcQuw2cY3-102" style="edgeStyle=orthogonalEdgeStyle;rounded=0;orthogonalLoop=1;jettySize=auto;html=1;exitX=0;exitY=0.5;exitDx=0;exitDy=0;entryX=0.5;entryY=0;entryDx=0;entryDy=0;" parent="1" source="ERL9ZfKcZ3rXcQuw2cY3-76" target="ERL9ZfKcZ3rXcQuw2cY3-97" edge="1">
          <mxGeometry relative="1" as="geometry" />
        </mxCell>
        <mxCell id="ERL9ZfKcZ3rXcQuw2cY3-103" style="edgeStyle=orthogonalEdgeStyle;rounded=0;orthogonalLoop=1;jettySize=auto;html=1;exitX=0;exitY=0.75;exitDx=0;exitDy=0;entryX=0.5;entryY=0;entryDx=0;entryDy=0;" parent="1" source="ERL9ZfKcZ3rXcQuw2cY3-76" target="ERL9ZfKcZ3rXcQuw2cY3-98" edge="1">
          <mxGeometry relative="1" as="geometry" />
        </mxCell>
        <mxCell id="ERL9ZfKcZ3rXcQuw2cY3-76" value="Column" style="rounded=0;whiteSpace=wrap;html=1;" parent="1" vertex="1">
          <mxGeometry x="1410" y="270" width="120" height="60" as="geometry" />
        </mxCell>
        <mxCell id="ERL9ZfKcZ3rXcQuw2cY3-77" style="edgeStyle=orthogonalEdgeStyle;rounded=0;orthogonalLoop=1;jettySize=auto;html=1;exitX=0.5;exitY=1;exitDx=0;exitDy=0;entryX=0.5;entryY=0;entryDx=0;entryDy=0;" parent="1" source="ERL9ZfKcZ3rXcQuw2cY3-78" target="ERL9ZfKcZ3rXcQuw2cY3-82" edge="1">
          <mxGeometry relative="1" as="geometry" />
        </mxCell>
        <mxCell id="ERL9ZfKcZ3rXcQuw2cY3-78" value="Expanded" style="rounded=0;whiteSpace=wrap;html=1;" parent="1" vertex="1">
          <mxGeometry x="1410" y="350" width="120" height="60" as="geometry" />
        </mxCell>
        <mxCell id="ERL9ZfKcZ3rXcQuw2cY3-79" style="edgeStyle=orthogonalEdgeStyle;rounded=0;orthogonalLoop=1;jettySize=auto;html=1;exitX=0;exitY=0.5;exitDx=0;exitDy=0;entryX=0.25;entryY=0;entryDx=0;entryDy=0;" parent="1" source="ERL9ZfKcZ3rXcQuw2cY3-80" target="ERL9ZfKcZ3rXcQuw2cY3-84" edge="1">
          <mxGeometry relative="1" as="geometry" />
        </mxCell>
        <mxCell id="ERL9ZfKcZ3rXcQuw2cY3-80" value="ChatInput" style="rounded=0;whiteSpace=wrap;html=1;" parent="1" vertex="1">
          <mxGeometry x="1640" y="350" width="120" height="60" as="geometry" />
        </mxCell>
        <mxCell id="ERL9ZfKcZ3rXcQuw2cY3-81" style="edgeStyle=orthogonalEdgeStyle;rounded=0;orthogonalLoop=1;jettySize=auto;html=1;exitX=0.5;exitY=1;exitDx=0;exitDy=0;entryX=0.5;entryY=0;entryDx=0;entryDy=0;" parent="1" source="ERL9ZfKcZ3rXcQuw2cY3-82" target="ERL9ZfKcZ3rXcQuw2cY3-83" edge="1">
          <mxGeometry relative="1" as="geometry" />
        </mxCell>
        <mxCell id="ERL9ZfKcZ3rXcQuw2cY3-82" value="ListView.Builder" style="rounded=0;whiteSpace=wrap;html=1;" parent="1" vertex="1">
          <mxGeometry x="1410" y="430" width="120" height="60" as="geometry" />
        </mxCell>
        <mxCell id="ERL9ZfKcZ3rXcQuw2cY3-83" value="ChatMessage" style="rounded=0;whiteSpace=wrap;html=1;" parent="1" vertex="1">
          <mxGeometry x="1410" y="510" width="120" height="60" as="geometry" />
        </mxCell>
        <mxCell id="ERL9ZfKcZ3rXcQuw2cY3-84" value="TextField" style="rounded=0;whiteSpace=wrap;html=1;" parent="1" vertex="1">
          <mxGeometry x="1560" y="430" width="120" height="60" as="geometry" />
        </mxCell>
        <mxCell id="ERL9ZfKcZ3rXcQuw2cY3-85" value="CustomButton" style="rounded=0;whiteSpace=wrap;html=1;" parent="1" vertex="1">
          <mxGeometry x="1730" y="430" width="120" height="60" as="geometry" />
        </mxCell>
        <mxCell id="ERL9ZfKcZ3rXcQuw2cY3-86" style="edgeStyle=orthogonalEdgeStyle;rounded=0;orthogonalLoop=1;jettySize=auto;html=1;exitX=0.5;exitY=1;exitDx=0;exitDy=0;entryX=0.25;entryY=0;entryDx=0;entryDy=0;" parent="1" source="ERL9ZfKcZ3rXcQuw2cY3-87" target="ERL9ZfKcZ3rXcQuw2cY3-89" edge="1">
          <mxGeometry relative="1" as="geometry" />
        </mxCell>
        <mxCell id="ERL9ZfKcZ3rXcQuw2cY3-87" value="BottomNavBar" style="rounded=0;whiteSpace=wrap;html=1;" parent="1" vertex="1">
          <mxGeometry x="1950" y="270" width="120" height="60" as="geometry" />
        </mxCell>
        <mxCell id="ERL9ZfKcZ3rXcQuw2cY3-88" value="Icon" style="rounded=0;whiteSpace=wrap;html=1;" parent="1" vertex="1">
          <mxGeometry x="1850" y="350" width="120" height="60" as="geometry" />
        </mxCell>
        <mxCell id="ERL9ZfKcZ3rXcQuw2cY3-89" value="Icon" style="rounded=0;whiteSpace=wrap;html=1;" parent="1" vertex="1">
          <mxGeometry x="1990" y="350" width="120" height="60" as="geometry" />
        </mxCell>
        <mxCell id="ERL9ZfKcZ3rXcQuw2cY3-90" value="Icon" style="rounded=0;whiteSpace=wrap;html=1;" parent="1" vertex="1">
          <mxGeometry x="2130" y="350" width="120" height="60" as="geometry" />
        </mxCell>
        <mxCell id="ERL9ZfKcZ3rXcQuw2cY3-91" style="edgeStyle=orthogonalEdgeStyle;rounded=0;orthogonalLoop=1;jettySize=auto;html=1;exitX=0.5;exitY=1;exitDx=0;exitDy=0;entryX=0.567;entryY=-0.033;entryDx=0;entryDy=0;entryPerimeter=0;" parent="1" source="ERL9ZfKcZ3rXcQuw2cY3-71" target="ERL9ZfKcZ3rXcQuw2cY3-76" edge="1">
          <mxGeometry relative="1" as="geometry" />
        </mxCell>
        <mxCell id="ERL9ZfKcZ3rXcQuw2cY3-92" style="edgeStyle=orthogonalEdgeStyle;rounded=0;orthogonalLoop=1;jettySize=auto;html=1;exitX=1;exitY=0.5;exitDx=0;exitDy=0;entryX=0.675;entryY=0.05;entryDx=0;entryDy=0;entryPerimeter=0;" parent="1" source="ERL9ZfKcZ3rXcQuw2cY3-80" target="ERL9ZfKcZ3rXcQuw2cY3-85" edge="1">
          <mxGeometry relative="1" as="geometry" />
        </mxCell>
        <mxCell id="ERL9ZfKcZ3rXcQuw2cY3-93" style="edgeStyle=orthogonalEdgeStyle;rounded=0;orthogonalLoop=1;jettySize=auto;html=1;exitX=0;exitY=0.5;exitDx=0;exitDy=0;entryX=0.333;entryY=0.017;entryDx=0;entryDy=0;entryPerimeter=0;" parent="1" source="ERL9ZfKcZ3rXcQuw2cY3-87" target="ERL9ZfKcZ3rXcQuw2cY3-88" edge="1">
          <mxGeometry relative="1" as="geometry" />
        </mxCell>
        <mxCell id="ERL9ZfKcZ3rXcQuw2cY3-94" style="edgeStyle=orthogonalEdgeStyle;rounded=0;orthogonalLoop=1;jettySize=auto;html=1;exitX=1;exitY=0.5;exitDx=0;exitDy=0;entryX=0.567;entryY=0;entryDx=0;entryDy=0;entryPerimeter=0;" parent="1" source="ERL9ZfKcZ3rXcQuw2cY3-87" target="ERL9ZfKcZ3rXcQuw2cY3-90" edge="1">
          <mxGeometry relative="1" as="geometry" />
        </mxCell>
        <mxCell id="ERL9ZfKcZ3rXcQuw2cY3-101" style="edgeStyle=orthogonalEdgeStyle;rounded=0;orthogonalLoop=1;jettySize=auto;html=1;exitX=0;exitY=0.5;exitDx=0;exitDy=0;entryX=1;entryY=0.5;entryDx=0;entryDy=0;" parent="1" source="ERL9ZfKcZ3rXcQuw2cY3-95" target="ERL9ZfKcZ3rXcQuw2cY3-96" edge="1">
          <mxGeometry relative="1" as="geometry" />
        </mxCell>
        <mxCell id="ERL9ZfKcZ3rXcQuw2cY3-95" value="AppBar" style="rounded=0;whiteSpace=wrap;html=1;" parent="1" vertex="1">
          <mxGeometry x="1100" y="170" width="120" height="60" as="geometry" />
        </mxCell>
        <mxCell id="ERL9ZfKcZ3rXcQuw2cY3-96" value="Text" style="rounded=0;whiteSpace=wrap;html=1;" parent="1" vertex="1">
          <mxGeometry x="940" y="170" width="120" height="60" as="geometry" />
        </mxCell>
        <mxCell id="ERL9ZfKcZ3rXcQuw2cY3-97" value="TabBar" style="rounded=0;whiteSpace=wrap;html=1;" parent="1" vertex="1">
          <mxGeometry x="1160" y="610" width="120" height="60" as="geometry" />
        </mxCell>
        <mxCell id="ERL9ZfKcZ3rXcQuw2cY3-113" style="edgeStyle=orthogonalEdgeStyle;rounded=0;orthogonalLoop=1;jettySize=auto;html=1;exitX=0.5;exitY=1;exitDx=0;exitDy=0;entryX=0.5;entryY=0;entryDx=0;entryDy=0;" parent="1" source="ERL9ZfKcZ3rXcQuw2cY3-98" target="ERL9ZfKcZ3rXcQuw2cY3-108" edge="1">
          <mxGeometry relative="1" as="geometry" />
        </mxCell>
        <mxCell id="ERL9ZfKcZ3rXcQuw2cY3-114" style="edgeStyle=orthogonalEdgeStyle;rounded=0;orthogonalLoop=1;jettySize=auto;html=1;exitX=1;exitY=0.5;exitDx=0;exitDy=0;entryX=0.5;entryY=0;entryDx=0;entryDy=0;" parent="1" source="ERL9ZfKcZ3rXcQuw2cY3-98" target="ERL9ZfKcZ3rXcQuw2cY3-111" edge="1">
          <mxGeometry relative="1" as="geometry" />
        </mxCell>
        <mxCell id="ERL9ZfKcZ3rXcQuw2cY3-98" value="TabBarView" style="rounded=0;whiteSpace=wrap;html=1;" parent="1" vertex="1">
          <mxGeometry x="1300" y="610" width="120" height="60" as="geometry" />
        </mxCell>
        <mxCell id="ERL9ZfKcZ3rXcQuw2cY3-107" style="edgeStyle=orthogonalEdgeStyle;rounded=0;orthogonalLoop=1;jettySize=auto;html=1;exitX=0.5;exitY=1;exitDx=0;exitDy=0;entryX=0.5;entryY=0;entryDx=0;entryDy=0;" parent="1" source="ERL9ZfKcZ3rXcQuw2cY3-108" target="ERL9ZfKcZ3rXcQuw2cY3-109" edge="1">
          <mxGeometry relative="1" as="geometry" />
        </mxCell>
        <mxCell id="ERL9ZfKcZ3rXcQuw2cY3-108" value="ListView.Builder" style="rounded=0;whiteSpace=wrap;html=1;" parent="1" vertex="1">
          <mxGeometry x="1300" y="720" width="120" height="60" as="geometry" />
        </mxCell>
        <mxCell id="ERL9ZfKcZ3rXcQuw2cY3-109" value="ChatMessage" style="rounded=0;whiteSpace=wrap;html=1;" parent="1" vertex="1">
          <mxGeometry x="1300" y="820" width="120" height="60" as="geometry" />
        </mxCell>
        <mxCell id="ERL9ZfKcZ3rXcQuw2cY3-110" style="edgeStyle=orthogonalEdgeStyle;rounded=0;orthogonalLoop=1;jettySize=auto;html=1;exitX=0.5;exitY=1;exitDx=0;exitDy=0;entryX=0.5;entryY=0;entryDx=0;entryDy=0;" parent="1" source="ERL9ZfKcZ3rXcQuw2cY3-111" target="ERL9ZfKcZ3rXcQuw2cY3-112" edge="1">
          <mxGeometry relative="1" as="geometry" />
        </mxCell>
        <mxCell id="ERL9ZfKcZ3rXcQuw2cY3-111" value="ListView.Builder" style="rounded=0;whiteSpace=wrap;html=1;" parent="1" vertex="1">
          <mxGeometry x="1440" y="720" width="120" height="60" as="geometry" />
        </mxCell>
        <mxCell id="ERL9ZfKcZ3rXcQuw2cY3-112" value="ChatMessage" style="rounded=0;whiteSpace=wrap;html=1;" parent="1" vertex="1">
          <mxGeometry x="1440" y="820" width="120" height="60" as="geometry" />
        </mxCell>
        <mxCell id="ERL9ZfKcZ3rXcQuw2cY3-115" value="Tab (General)" style="rounded=0;whiteSpace=wrap;html=1;" parent="1" vertex="1">
          <mxGeometry x="990" y="720" width="120" height="60" as="geometry" />
        </mxCell>
        <mxCell id="ERL9ZfKcZ3rXcQuw2cY3-116" value="Tab (Suppoprt)" style="rounded=0;whiteSpace=wrap;html=1;" parent="1" vertex="1">
          <mxGeometry x="1140" y="720" width="120" height="60" as="geometry" />
        </mxCell>
        <mxCell id="ERL9ZfKcZ3rXcQuw2cY3-117" style="edgeStyle=orthogonalEdgeStyle;rounded=0;orthogonalLoop=1;jettySize=auto;html=1;exitX=0;exitY=0.5;exitDx=0;exitDy=0;entryX=0.451;entryY=0.008;entryDx=0;entryDy=0;entryPerimeter=0;" parent="1" source="ERL9ZfKcZ3rXcQuw2cY3-97" target="ERL9ZfKcZ3rXcQuw2cY3-115" edge="1">
          <mxGeometry relative="1" as="geometry" />
        </mxCell>
        <mxCell id="ERL9ZfKcZ3rXcQuw2cY3-118" style="edgeStyle=orthogonalEdgeStyle;rounded=0;orthogonalLoop=1;jettySize=auto;html=1;exitX=0.5;exitY=1;exitDx=0;exitDy=0;entryX=0.5;entryY=0;entryDx=0;entryDy=0;" parent="1" source="ERL9ZfKcZ3rXcQuw2cY3-97" target="ERL9ZfKcZ3rXcQuw2cY3-116" edge="1">
          <mxGeometry relative="1" as="geometry" />
        </mxCell>
        <mxCell id="ERL9ZfKcZ3rXcQuw2cY3-128" style="edgeStyle=orthogonalEdgeStyle;rounded=0;orthogonalLoop=1;jettySize=auto;html=1;exitX=0.5;exitY=1;exitDx=0;exitDy=0;entryX=0.5;entryY=0;entryDx=0;entryDy=0;" parent="1" source="ERL9ZfKcZ3rXcQuw2cY3-120" target="ERL9ZfKcZ3rXcQuw2cY3-122" edge="1">
          <mxGeometry relative="1" as="geometry" />
        </mxCell>
        <mxCell id="ERL9ZfKcZ3rXcQuw2cY3-120" value="ForgotPassword" style="rounded=0;whiteSpace=wrap;html=1;" parent="1" vertex="1">
          <mxGeometry x="-160" y="100" width="120" height="60" as="geometry" />
        </mxCell>
        <mxCell id="ERL9ZfKcZ3rXcQuw2cY3-133" style="edgeStyle=orthogonalEdgeStyle;rounded=0;orthogonalLoop=1;jettySize=auto;html=1;exitX=0.5;exitY=1;exitDx=0;exitDy=0;entryX=0.5;entryY=0;entryDx=0;entryDy=0;" parent="1" source="ERL9ZfKcZ3rXcQuw2cY3-122" target="ERL9ZfKcZ3rXcQuw2cY3-129" edge="1">
          <mxGeometry relative="1" as="geometry" />
        </mxCell>
        <mxCell id="ERL9ZfKcZ3rXcQuw2cY3-140" style="edgeStyle=orthogonalEdgeStyle;rounded=0;orthogonalLoop=1;jettySize=auto;html=1;exitX=0;exitY=0.5;exitDx=0;exitDy=0;entryX=1;entryY=0.5;entryDx=0;entryDy=0;" parent="1" source="ERL9ZfKcZ3rXcQuw2cY3-122" target="ERL9ZfKcZ3rXcQuw2cY3-125" edge="1">
          <mxGeometry relative="1" as="geometry" />
        </mxCell>
        <mxCell id="ERL9ZfKcZ3rXcQuw2cY3-122" value="Scaffold" style="rounded=0;whiteSpace=wrap;html=1;" parent="1" vertex="1">
          <mxGeometry x="-160" y="190" width="120" height="60" as="geometry" />
        </mxCell>
        <mxCell id="ERL9ZfKcZ3rXcQuw2cY3-124" style="edgeStyle=orthogonalEdgeStyle;rounded=0;orthogonalLoop=1;jettySize=auto;html=1;exitX=0.5;exitY=1;exitDx=0;exitDy=0;entryX=0.5;entryY=0;entryDx=0;entryDy=0;" parent="1" source="ERL9ZfKcZ3rXcQuw2cY3-125" target="ERL9ZfKcZ3rXcQuw2cY3-126" edge="1">
          <mxGeometry relative="1" as="geometry" />
        </mxCell>
        <mxCell id="ERL9ZfKcZ3rXcQuw2cY3-125" value="AppBar" style="rounded=0;whiteSpace=wrap;html=1;" parent="1" vertex="1">
          <mxGeometry x="-350" y="100" width="120" height="60" as="geometry" />
        </mxCell>
        <mxCell id="ERL9ZfKcZ3rXcQuw2cY3-126" value="Text" style="rounded=0;whiteSpace=wrap;html=1;" parent="1" vertex="1">
          <mxGeometry x="-350" y="180" width="120" height="60" as="geometry" />
        </mxCell>
        <mxCell id="ERL9ZfKcZ3rXcQuw2cY3-134" style="edgeStyle=orthogonalEdgeStyle;rounded=0;orthogonalLoop=1;jettySize=auto;html=1;exitX=0;exitY=0.5;exitDx=0;exitDy=0;entryX=0.5;entryY=0;entryDx=0;entryDy=0;" parent="1" source="ERL9ZfKcZ3rXcQuw2cY3-129" target="ERL9ZfKcZ3rXcQuw2cY3-130" edge="1">
          <mxGeometry relative="1" as="geometry" />
        </mxCell>
        <mxCell id="ERL9ZfKcZ3rXcQuw2cY3-136" style="edgeStyle=orthogonalEdgeStyle;rounded=0;orthogonalLoop=1;jettySize=auto;html=1;exitX=1;exitY=0.5;exitDx=0;exitDy=0;entryX=0.5;entryY=0;entryDx=0;entryDy=0;" parent="1" source="ERL9ZfKcZ3rXcQuw2cY3-129" target="ERL9ZfKcZ3rXcQuw2cY3-132" edge="1">
          <mxGeometry relative="1" as="geometry" />
        </mxCell>
        <mxCell id="ERL9ZfKcZ3rXcQuw2cY3-129" value="Column" style="rounded=0;whiteSpace=wrap;html=1;" parent="1" vertex="1">
          <mxGeometry x="-160" y="270" width="120" height="60" as="geometry" />
        </mxCell>
        <mxCell id="ERL9ZfKcZ3rXcQuw2cY3-130" value="Text" style="rounded=0;whiteSpace=wrap;html=1;" parent="1" vertex="1">
          <mxGeometry x="-340" y="360" width="120" height="60" as="geometry" />
        </mxCell>
        <mxCell id="ERL9ZfKcZ3rXcQuw2cY3-131" value="TextFormField" style="rounded=0;whiteSpace=wrap;html=1;" parent="1" vertex="1">
          <mxGeometry x="-200" y="360" width="120" height="60" as="geometry" />
        </mxCell>
        <mxCell id="ERL9ZfKcZ3rXcQuw2cY3-132" value="CustomButton" style="rounded=0;whiteSpace=wrap;html=1;" parent="1" vertex="1">
          <mxGeometry x="-50" y="360" width="120" height="60" as="geometry" />
        </mxCell>
        <mxCell id="ERL9ZfKcZ3rXcQuw2cY3-135" style="edgeStyle=orthogonalEdgeStyle;rounded=0;orthogonalLoop=1;jettySize=auto;html=1;exitX=0.25;exitY=1;exitDx=0;exitDy=0;entryX=0.612;entryY=0.004;entryDx=0;entryDy=0;entryPerimeter=0;" parent="1" source="ERL9ZfKcZ3rXcQuw2cY3-129" target="ERL9ZfKcZ3rXcQuw2cY3-131" edge="1">
          <mxGeometry relative="1" as="geometry" />
        </mxCell>
        <mxCell id="ERL9ZfKcZ3rXcQuw2cY3-141" style="edgeStyle=orthogonalEdgeStyle;rounded=0;orthogonalLoop=1;jettySize=auto;html=1;exitX=0.5;exitY=1;exitDx=0;exitDy=0;entryX=0.5;entryY=0;entryDx=0;entryDy=0;" parent="1" source="ERL9ZfKcZ3rXcQuw2cY3-137" target="ERL9ZfKcZ3rXcQuw2cY3-138" edge="1">
          <mxGeometry relative="1" as="geometry" />
        </mxCell>
        <mxCell id="ERL9ZfKcZ3rXcQuw2cY3-137" value="History" style="rounded=0;whiteSpace=wrap;html=1;" parent="1" vertex="1">
          <mxGeometry x="-930" y="90" width="120" height="60" as="geometry" />
        </mxCell>
        <mxCell id="ERL9ZfKcZ3rXcQuw2cY3-142" style="edgeStyle=orthogonalEdgeStyle;rounded=0;orthogonalLoop=1;jettySize=auto;html=1;exitX=0;exitY=0.5;exitDx=0;exitDy=0;entryX=1;entryY=0.5;entryDx=0;entryDy=0;" parent="1" source="ERL9ZfKcZ3rXcQuw2cY3-138" target="ERL9ZfKcZ3rXcQuw2cY3-139" edge="1">
          <mxGeometry relative="1" as="geometry" />
        </mxCell>
        <mxCell id="ERL9ZfKcZ3rXcQuw2cY3-145" style="edgeStyle=orthogonalEdgeStyle;rounded=0;orthogonalLoop=1;jettySize=auto;html=1;exitX=1;exitY=0.5;exitDx=0;exitDy=0;entryX=0;entryY=0.5;entryDx=0;entryDy=0;" parent="1" source="ERL9ZfKcZ3rXcQuw2cY3-138" target="ERL9ZfKcZ3rXcQuw2cY3-144" edge="1">
          <mxGeometry relative="1" as="geometry" />
        </mxCell>
        <mxCell id="ERL9ZfKcZ3rXcQuw2cY3-146" style="edgeStyle=orthogonalEdgeStyle;rounded=0;orthogonalLoop=1;jettySize=auto;html=1;exitX=0.5;exitY=1;exitDx=0;exitDy=0;entryX=0.5;entryY=0;entryDx=0;entryDy=0;" parent="1" source="ERL9ZfKcZ3rXcQuw2cY3-138" target="ERL9ZfKcZ3rXcQuw2cY3-143" edge="1">
          <mxGeometry relative="1" as="geometry" />
        </mxCell>
        <mxCell id="ERL9ZfKcZ3rXcQuw2cY3-138" value="Scaffold" style="rounded=0;whiteSpace=wrap;html=1;" parent="1" vertex="1">
          <mxGeometry x="-930" y="180" width="120" height="60" as="geometry" />
        </mxCell>
        <mxCell id="ERL9ZfKcZ3rXcQuw2cY3-148" style="edgeStyle=orthogonalEdgeStyle;rounded=0;orthogonalLoop=1;jettySize=auto;html=1;exitX=0.5;exitY=1;exitDx=0;exitDy=0;entryX=0.5;entryY=0;entryDx=0;entryDy=0;" parent="1" source="ERL9ZfKcZ3rXcQuw2cY3-139" target="ERL9ZfKcZ3rXcQuw2cY3-147" edge="1">
          <mxGeometry relative="1" as="geometry" />
        </mxCell>
        <mxCell id="ERL9ZfKcZ3rXcQuw2cY3-139" value="AppBar" style="rounded=0;whiteSpace=wrap;html=1;" parent="1" vertex="1">
          <mxGeometry x="-1130" y="180" width="120" height="60" as="geometry" />
        </mxCell>
        <mxCell id="ERL9ZfKcZ3rXcQuw2cY3-151" style="edgeStyle=orthogonalEdgeStyle;rounded=0;orthogonalLoop=1;jettySize=auto;html=1;exitX=0.5;exitY=1;exitDx=0;exitDy=0;entryX=0.5;entryY=0;entryDx=0;entryDy=0;" parent="1" source="ERL9ZfKcZ3rXcQuw2cY3-143" target="ERL9ZfKcZ3rXcQuw2cY3-150" edge="1">
          <mxGeometry relative="1" as="geometry" />
        </mxCell>
        <mxCell id="ERL9ZfKcZ3rXcQuw2cY3-143" value="ListView.builder" style="rounded=0;whiteSpace=wrap;html=1;" parent="1" vertex="1">
          <mxGeometry x="-930" y="280" width="120" height="60" as="geometry" />
        </mxCell>
        <mxCell id="ERL9ZfKcZ3rXcQuw2cY3-144" value="BottomNavBar" style="rounded=0;whiteSpace=wrap;html=1;" parent="1" vertex="1">
          <mxGeometry x="-750" y="180" width="120" height="60" as="geometry" />
        </mxCell>
        <mxCell id="ERL9ZfKcZ3rXcQuw2cY3-147" value="Text" style="rounded=0;whiteSpace=wrap;html=1;" parent="1" vertex="1">
          <mxGeometry x="-1130" y="270" width="120" height="60" as="geometry" />
        </mxCell>
        <mxCell id="ERL9ZfKcZ3rXcQuw2cY3-156" style="edgeStyle=orthogonalEdgeStyle;rounded=0;orthogonalLoop=1;jettySize=auto;html=1;exitX=0.5;exitY=1;exitDx=0;exitDy=0;entryX=0.5;entryY=0;entryDx=0;entryDy=0;" parent="1" source="ERL9ZfKcZ3rXcQuw2cY3-150" target="ERL9ZfKcZ3rXcQuw2cY3-152" edge="1">
          <mxGeometry relative="1" as="geometry" />
        </mxCell>
        <mxCell id="ERL9ZfKcZ3rXcQuw2cY3-159" style="edgeStyle=orthogonalEdgeStyle;rounded=0;orthogonalLoop=1;jettySize=auto;html=1;exitX=1;exitY=0.5;exitDx=0;exitDy=0;entryX=0;entryY=0.5;entryDx=0;entryDy=0;" parent="1" source="ERL9ZfKcZ3rXcQuw2cY3-150" target="ERL9ZfKcZ3rXcQuw2cY3-155" edge="1">
          <mxGeometry relative="1" as="geometry" />
        </mxCell>
        <mxCell id="ERL9ZfKcZ3rXcQuw2cY3-150" value="Card" style="rounded=0;whiteSpace=wrap;html=1;" parent="1" vertex="1">
          <mxGeometry x="-930" y="380" width="120" height="60" as="geometry" />
        </mxCell>
        <mxCell id="ERL9ZfKcZ3rXcQuw2cY3-157" style="edgeStyle=orthogonalEdgeStyle;rounded=0;orthogonalLoop=1;jettySize=auto;html=1;exitX=0;exitY=0.5;exitDx=0;exitDy=0;entryX=0.5;entryY=0;entryDx=0;entryDy=0;" parent="1" source="ERL9ZfKcZ3rXcQuw2cY3-152" target="ERL9ZfKcZ3rXcQuw2cY3-153" edge="1">
          <mxGeometry relative="1" as="geometry" />
        </mxCell>
        <mxCell id="ERL9ZfKcZ3rXcQuw2cY3-158" style="edgeStyle=orthogonalEdgeStyle;rounded=0;orthogonalLoop=1;jettySize=auto;html=1;exitX=1;exitY=0.5;exitDx=0;exitDy=0;entryX=0.5;entryY=0;entryDx=0;entryDy=0;" parent="1" source="ERL9ZfKcZ3rXcQuw2cY3-152" target="ERL9ZfKcZ3rXcQuw2cY3-154" edge="1">
          <mxGeometry relative="1" as="geometry" />
        </mxCell>
        <mxCell id="ERL9ZfKcZ3rXcQuw2cY3-152" value="ListTile" style="rounded=0;whiteSpace=wrap;html=1;" parent="1" vertex="1">
          <mxGeometry x="-930" y="470" width="120" height="60" as="geometry" />
        </mxCell>
        <mxCell id="ERL9ZfKcZ3rXcQuw2cY3-153" value="Text" style="rounded=0;whiteSpace=wrap;html=1;" parent="1" vertex="1">
          <mxGeometry x="-1010" y="580" width="120" height="60" as="geometry" />
        </mxCell>
        <mxCell id="ERL9ZfKcZ3rXcQuw2cY3-154" value="Text" style="rounded=0;whiteSpace=wrap;html=1;" parent="1" vertex="1">
          <mxGeometry x="-850" y="580" width="120" height="60" as="geometry" />
        </mxCell>
        <mxCell id="ERL9ZfKcZ3rXcQuw2cY3-155" value="Icon" style="rounded=0;whiteSpace=wrap;html=1;" parent="1" vertex="1">
          <mxGeometry x="-750" y="380" width="120" height="60" as="geometry" />
        </mxCell>
        <mxCell id="ERL9ZfKcZ3rXcQuw2cY3-165" style="edgeStyle=orthogonalEdgeStyle;rounded=0;orthogonalLoop=1;jettySize=auto;html=1;exitX=0.5;exitY=1;exitDx=0;exitDy=0;entryX=0.5;entryY=0;entryDx=0;entryDy=0;" parent="1" source="ERL9ZfKcZ3rXcQuw2cY3-160" target="ERL9ZfKcZ3rXcQuw2cY3-162" edge="1">
          <mxGeometry relative="1" as="geometry" />
        </mxCell>
        <mxCell id="ERL9ZfKcZ3rXcQuw2cY3-160" value="Login" style="rounded=0;whiteSpace=wrap;html=1;" parent="1" vertex="1">
          <mxGeometry x="30" y="700" width="120" height="60" as="geometry" />
        </mxCell>
        <mxCell id="ERL9ZfKcZ3rXcQuw2cY3-161" style="edgeStyle=orthogonalEdgeStyle;rounded=0;orthogonalLoop=1;jettySize=auto;html=1;exitX=0;exitY=0.25;exitDx=0;exitDy=0;entryX=0.421;entryY=-0.008;entryDx=0;entryDy=0;entryPerimeter=0;" parent="1" source="ERL9ZfKcZ3rXcQuw2cY3-1" target="ERL9ZfKcZ3rXcQuw2cY3-160" edge="1">
          <mxGeometry relative="1" as="geometry" />
        </mxCell>
        <mxCell id="ERL9ZfKcZ3rXcQuw2cY3-168" style="edgeStyle=orthogonalEdgeStyle;rounded=0;orthogonalLoop=1;jettySize=auto;html=1;exitX=0;exitY=0.5;exitDx=0;exitDy=0;entryX=1;entryY=0.5;entryDx=0;entryDy=0;" parent="1" source="ERL9ZfKcZ3rXcQuw2cY3-162" target="ERL9ZfKcZ3rXcQuw2cY3-163" edge="1">
          <mxGeometry relative="1" as="geometry" />
        </mxCell>
        <mxCell id="ERL9ZfKcZ3rXcQuw2cY3-169" style="edgeStyle=orthogonalEdgeStyle;rounded=0;orthogonalLoop=1;jettySize=auto;html=1;exitX=0.5;exitY=1;exitDx=0;exitDy=0;entryX=0.5;entryY=0;entryDx=0;entryDy=0;" parent="1" source="ERL9ZfKcZ3rXcQuw2cY3-162" target="ERL9ZfKcZ3rXcQuw2cY3-164" edge="1">
          <mxGeometry relative="1" as="geometry" />
        </mxCell>
        <mxCell id="ERL9ZfKcZ3rXcQuw2cY3-162" value="Scaffold" style="rounded=0;whiteSpace=wrap;html=1;" parent="1" vertex="1">
          <mxGeometry x="30" y="790" width="120" height="60" as="geometry" />
        </mxCell>
        <mxCell id="ERL9ZfKcZ3rXcQuw2cY3-171" style="edgeStyle=orthogonalEdgeStyle;rounded=0;orthogonalLoop=1;jettySize=auto;html=1;exitX=0.5;exitY=1;exitDx=0;exitDy=0;entryX=0.5;entryY=0;entryDx=0;entryDy=0;" parent="1" source="ERL9ZfKcZ3rXcQuw2cY3-163" target="ERL9ZfKcZ3rXcQuw2cY3-170" edge="1">
          <mxGeometry relative="1" as="geometry" />
        </mxCell>
        <mxCell id="ERL9ZfKcZ3rXcQuw2cY3-163" value="AppBar" style="rounded=0;whiteSpace=wrap;html=1;" parent="1" vertex="1">
          <mxGeometry x="-140" y="790" width="120" height="60" as="geometry" />
        </mxCell>
        <mxCell id="ERL9ZfKcZ3rXcQuw2cY3-178" style="edgeStyle=orthogonalEdgeStyle;rounded=0;orthogonalLoop=1;jettySize=auto;html=1;exitX=0.25;exitY=1;exitDx=0;exitDy=0;entryX=0.75;entryY=0;entryDx=0;entryDy=0;" parent="1" source="ERL9ZfKcZ3rXcQuw2cY3-164" target="ERL9ZfKcZ3rXcQuw2cY3-176" edge="1">
          <mxGeometry relative="1" as="geometry" />
        </mxCell>
        <mxCell id="ERL9ZfKcZ3rXcQuw2cY3-179" style="edgeStyle=orthogonalEdgeStyle;rounded=0;orthogonalLoop=1;jettySize=auto;html=1;exitX=0.5;exitY=1;exitDx=0;exitDy=0;entryX=0.5;entryY=0;entryDx=0;entryDy=0;" parent="1" source="ERL9ZfKcZ3rXcQuw2cY3-164" target="ERL9ZfKcZ3rXcQuw2cY3-172" edge="1">
          <mxGeometry relative="1" as="geometry" />
        </mxCell>
        <mxCell id="ERL9ZfKcZ3rXcQuw2cY3-180" style="edgeStyle=orthogonalEdgeStyle;rounded=0;orthogonalLoop=1;jettySize=auto;html=1;exitX=1;exitY=0.5;exitDx=0;exitDy=0;entryX=0.5;entryY=0;entryDx=0;entryDy=0;" parent="1" source="ERL9ZfKcZ3rXcQuw2cY3-164" target="ERL9ZfKcZ3rXcQuw2cY3-177" edge="1">
          <mxGeometry relative="1" as="geometry" />
        </mxCell>
        <mxCell id="ERL9ZfKcZ3rXcQuw2cY3-164" value="Column" style="rounded=0;whiteSpace=wrap;html=1;" parent="1" vertex="1">
          <mxGeometry x="30" y="890" width="120" height="60" as="geometry" />
        </mxCell>
        <mxCell id="ERL9ZfKcZ3rXcQuw2cY3-170" value="Text" style="rounded=0;whiteSpace=wrap;html=1;" parent="1" vertex="1">
          <mxGeometry x="-140" y="890" width="120" height="60" as="geometry" />
        </mxCell>
        <mxCell id="ERL9ZfKcZ3rXcQuw2cY3-172" value="TextFormField" style="rounded=0;whiteSpace=wrap;html=1;" parent="1" vertex="1">
          <mxGeometry x="40" y="990" width="120" height="60" as="geometry" />
        </mxCell>
        <mxCell id="ERL9ZfKcZ3rXcQuw2cY3-176" value="TextFormField" style="rounded=0;whiteSpace=wrap;html=1;" parent="1" vertex="1">
          <mxGeometry x="-100" y="990" width="120" height="60" as="geometry" />
        </mxCell>
        <mxCell id="ERL9ZfKcZ3rXcQuw2cY3-177" value="CustomButton" style="rounded=0;whiteSpace=wrap;html=1;" parent="1" vertex="1">
          <mxGeometry x="180" y="990" width="120" height="60" as="geometry" />
        </mxCell>
        <mxCell id="ERL9ZfKcZ3rXcQuw2cY3-184" style="edgeStyle=orthogonalEdgeStyle;rounded=0;orthogonalLoop=1;jettySize=auto;html=1;exitX=0.5;exitY=1;exitDx=0;exitDy=0;entryX=0.5;entryY=0;entryDx=0;entryDy=0;" parent="1" source="ERL9ZfKcZ3rXcQuw2cY3-181" target="ERL9ZfKcZ3rXcQuw2cY3-183" edge="1">
          <mxGeometry relative="1" as="geometry" />
        </mxCell>
        <mxCell id="ERL9ZfKcZ3rXcQuw2cY3-181" value="Onboarding" style="rounded=0;whiteSpace=wrap;html=1;" parent="1" vertex="1">
          <mxGeometry x="430" y="700" width="120" height="60" as="geometry" />
        </mxCell>
        <mxCell id="ERL9ZfKcZ3rXcQuw2cY3-182" style="edgeStyle=orthogonalEdgeStyle;rounded=0;orthogonalLoop=1;jettySize=auto;html=1;exitX=1;exitY=0.25;exitDx=0;exitDy=0;entryX=0.096;entryY=0.008;entryDx=0;entryDy=0;entryPerimeter=0;" parent="1" source="ERL9ZfKcZ3rXcQuw2cY3-1" target="ERL9ZfKcZ3rXcQuw2cY3-181" edge="1">
          <mxGeometry relative="1" as="geometry" />
        </mxCell>
        <mxCell id="ERL9ZfKcZ3rXcQuw2cY3-186" style="edgeStyle=orthogonalEdgeStyle;rounded=0;orthogonalLoop=1;jettySize=auto;html=1;exitX=0.5;exitY=1;exitDx=0;exitDy=0;entryX=0.5;entryY=0;entryDx=0;entryDy=0;" parent="1" source="ERL9ZfKcZ3rXcQuw2cY3-183" target="ERL9ZfKcZ3rXcQuw2cY3-185" edge="1">
          <mxGeometry relative="1" as="geometry" />
        </mxCell>
        <mxCell id="ERL9ZfKcZ3rXcQuw2cY3-210" style="edgeStyle=orthogonalEdgeStyle;rounded=0;orthogonalLoop=1;jettySize=auto;html=1;exitX=1;exitY=0.75;exitDx=0;exitDy=0;entryX=0;entryY=0.25;entryDx=0;entryDy=0;" parent="1" source="ERL9ZfKcZ3rXcQuw2cY3-183" target="ERL9ZfKcZ3rXcQuw2cY3-197" edge="1">
          <mxGeometry relative="1" as="geometry" />
        </mxCell>
        <mxCell id="ERL9ZfKcZ3rXcQuw2cY3-183" value="Scaffold" style="rounded=0;whiteSpace=wrap;html=1;" parent="1" vertex="1">
          <mxGeometry x="440" y="800" width="120" height="60" as="geometry" />
        </mxCell>
        <mxCell id="ERL9ZfKcZ3rXcQuw2cY3-192" style="edgeStyle=orthogonalEdgeStyle;rounded=0;orthogonalLoop=1;jettySize=auto;html=1;exitX=0;exitY=0.5;exitDx=0;exitDy=0;entryX=0.5;entryY=0;entryDx=0;entryDy=0;" parent="1" source="ERL9ZfKcZ3rXcQuw2cY3-185" target="ERL9ZfKcZ3rXcQuw2cY3-191" edge="1">
          <mxGeometry relative="1" as="geometry" />
        </mxCell>
        <mxCell id="ERL9ZfKcZ3rXcQuw2cY3-193" style="edgeStyle=orthogonalEdgeStyle;rounded=0;orthogonalLoop=1;jettySize=auto;html=1;exitX=0.5;exitY=1;exitDx=0;exitDy=0;entryX=0.5;entryY=0;entryDx=0;entryDy=0;" parent="1" source="ERL9ZfKcZ3rXcQuw2cY3-185" target="ERL9ZfKcZ3rXcQuw2cY3-189" edge="1">
          <mxGeometry relative="1" as="geometry" />
        </mxCell>
        <mxCell id="ERL9ZfKcZ3rXcQuw2cY3-185" value="Column" style="rounded=0;whiteSpace=wrap;html=1;" parent="1" vertex="1">
          <mxGeometry x="440" y="1080" width="120" height="60" as="geometry" />
        </mxCell>
        <mxCell id="ERL9ZfKcZ3rXcQuw2cY3-189" value="Text" style="rounded=0;whiteSpace=wrap;html=1;" parent="1" vertex="1">
          <mxGeometry x="440" y="1190" width="120" height="60" as="geometry" />
        </mxCell>
        <mxCell id="ERL9ZfKcZ3rXcQuw2cY3-190" value="Text" style="rounded=0;whiteSpace=wrap;html=1;" parent="1" vertex="1">
          <mxGeometry x="580" y="1190" width="120" height="60" as="geometry" />
        </mxCell>
        <mxCell id="ERL9ZfKcZ3rXcQuw2cY3-191" value="Image" style="rounded=0;whiteSpace=wrap;html=1;" parent="1" vertex="1">
          <mxGeometry x="300" y="1190" width="120" height="60" as="geometry" />
        </mxCell>
        <mxCell id="ERL9ZfKcZ3rXcQuw2cY3-194" style="edgeStyle=orthogonalEdgeStyle;rounded=0;orthogonalLoop=1;jettySize=auto;html=1;exitX=1;exitY=0.5;exitDx=0;exitDy=0;entryX=0.55;entryY=-0.027;entryDx=0;entryDy=0;entryPerimeter=0;" parent="1" source="ERL9ZfKcZ3rXcQuw2cY3-185" target="ERL9ZfKcZ3rXcQuw2cY3-190" edge="1">
          <mxGeometry relative="1" as="geometry" />
        </mxCell>
        <mxCell id="ERL9ZfKcZ3rXcQuw2cY3-195" style="edgeStyle=orthogonalEdgeStyle;rounded=0;orthogonalLoop=1;jettySize=auto;html=1;exitX=0;exitY=0.5;exitDx=0;exitDy=0;entryX=0.5;entryY=0;entryDx=0;entryDy=0;" parent="1" source="ERL9ZfKcZ3rXcQuw2cY3-197" target="ERL9ZfKcZ3rXcQuw2cY3-200" edge="1">
          <mxGeometry relative="1" as="geometry" />
        </mxCell>
        <mxCell id="ERL9ZfKcZ3rXcQuw2cY3-196" style="edgeStyle=orthogonalEdgeStyle;rounded=0;orthogonalLoop=1;jettySize=auto;html=1;exitX=0.5;exitY=1;exitDx=0;exitDy=0;entryX=0.5;entryY=0;entryDx=0;entryDy=0;" parent="1" source="ERL9ZfKcZ3rXcQuw2cY3-197" target="ERL9ZfKcZ3rXcQuw2cY3-198" edge="1">
          <mxGeometry relative="1" as="geometry" />
        </mxCell>
        <mxCell id="ERL9ZfKcZ3rXcQuw2cY3-197" value="Column" style="rounded=0;whiteSpace=wrap;html=1;" parent="1" vertex="1">
          <mxGeometry x="710" y="860" width="120" height="60" as="geometry" />
        </mxCell>
        <mxCell id="ERL9ZfKcZ3rXcQuw2cY3-198" value="Text" style="rounded=0;whiteSpace=wrap;html=1;" parent="1" vertex="1">
          <mxGeometry x="710" y="970" width="120" height="60" as="geometry" />
        </mxCell>
        <mxCell id="ERL9ZfKcZ3rXcQuw2cY3-199" value="Text" style="rounded=0;whiteSpace=wrap;html=1;" parent="1" vertex="1">
          <mxGeometry x="850" y="970" width="120" height="60" as="geometry" />
        </mxCell>
        <mxCell id="ERL9ZfKcZ3rXcQuw2cY3-200" value="Image" style="rounded=0;whiteSpace=wrap;html=1;" parent="1" vertex="1">
          <mxGeometry x="570" y="970" width="120" height="60" as="geometry" />
        </mxCell>
        <mxCell id="ERL9ZfKcZ3rXcQuw2cY3-201" style="edgeStyle=orthogonalEdgeStyle;rounded=0;orthogonalLoop=1;jettySize=auto;html=1;exitX=1;exitY=0.5;exitDx=0;exitDy=0;entryX=0.55;entryY=-0.027;entryDx=0;entryDy=0;entryPerimeter=0;" parent="1" source="ERL9ZfKcZ3rXcQuw2cY3-197" target="ERL9ZfKcZ3rXcQuw2cY3-199" edge="1">
          <mxGeometry relative="1" as="geometry" />
        </mxCell>
        <mxCell id="ERL9ZfKcZ3rXcQuw2cY3-202" style="edgeStyle=orthogonalEdgeStyle;rounded=0;orthogonalLoop=1;jettySize=auto;html=1;exitX=0;exitY=0.5;exitDx=0;exitDy=0;entryX=0.5;entryY=0;entryDx=0;entryDy=0;" parent="1" source="ERL9ZfKcZ3rXcQuw2cY3-204" target="ERL9ZfKcZ3rXcQuw2cY3-207" edge="1">
          <mxGeometry relative="1" as="geometry" />
        </mxCell>
        <mxCell id="ERL9ZfKcZ3rXcQuw2cY3-203" style="edgeStyle=orthogonalEdgeStyle;rounded=0;orthogonalLoop=1;jettySize=auto;html=1;exitX=0.5;exitY=1;exitDx=0;exitDy=0;entryX=0.5;entryY=0;entryDx=0;entryDy=0;" parent="1" source="ERL9ZfKcZ3rXcQuw2cY3-204" target="ERL9ZfKcZ3rXcQuw2cY3-205" edge="1">
          <mxGeometry relative="1" as="geometry" />
        </mxCell>
        <mxCell id="ERL9ZfKcZ3rXcQuw2cY3-204" value="Column" style="rounded=0;whiteSpace=wrap;html=1;" parent="1" vertex="1">
          <mxGeometry x="720" y="660" width="120" height="60" as="geometry" />
        </mxCell>
        <mxCell id="ERL9ZfKcZ3rXcQuw2cY3-205" value="Text" style="rounded=0;whiteSpace=wrap;html=1;" parent="1" vertex="1">
          <mxGeometry x="720" y="770" width="120" height="60" as="geometry" />
        </mxCell>
        <mxCell id="ERL9ZfKcZ3rXcQuw2cY3-206" value="Text" style="rounded=0;whiteSpace=wrap;html=1;" parent="1" vertex="1">
          <mxGeometry x="860" y="770" width="120" height="60" as="geometry" />
        </mxCell>
        <mxCell id="ERL9ZfKcZ3rXcQuw2cY3-207" value="Image" style="rounded=0;whiteSpace=wrap;html=1;" parent="1" vertex="1">
          <mxGeometry x="580" y="770" width="120" height="60" as="geometry" />
        </mxCell>
        <mxCell id="ERL9ZfKcZ3rXcQuw2cY3-208" style="edgeStyle=orthogonalEdgeStyle;rounded=0;orthogonalLoop=1;jettySize=auto;html=1;exitX=1;exitY=0.5;exitDx=0;exitDy=0;entryX=0.55;entryY=-0.027;entryDx=0;entryDy=0;entryPerimeter=0;" parent="1" source="ERL9ZfKcZ3rXcQuw2cY3-204" target="ERL9ZfKcZ3rXcQuw2cY3-206" edge="1">
          <mxGeometry relative="1" as="geometry" />
        </mxCell>
        <mxCell id="ERL9ZfKcZ3rXcQuw2cY3-209" style="edgeStyle=orthogonalEdgeStyle;rounded=0;orthogonalLoop=1;jettySize=auto;html=1;exitX=1;exitY=0;exitDx=0;exitDy=0;entryX=0.303;entryY=0.009;entryDx=0;entryDy=0;entryPerimeter=0;" parent="1" source="ERL9ZfKcZ3rXcQuw2cY3-183" target="ERL9ZfKcZ3rXcQuw2cY3-204" edge="1">
          <mxGeometry relative="1" as="geometry" />
        </mxCell>
        <mxCell id="UCqszwud1Ir7xBhQG_wQ-1" style="edgeStyle=orthogonalEdgeStyle;rounded=0;orthogonalLoop=1;jettySize=auto;html=1;exitX=0.5;exitY=1;exitDx=0;exitDy=0;entryX=0.5;entryY=0;entryDx=0;entryDy=0;" edge="1" parent="1" source="UCqszwud1Ir7xBhQG_wQ-2" target="UCqszwud1Ir7xBhQG_wQ-5">
          <mxGeometry relative="1" as="geometry" />
        </mxCell>
        <mxCell id="UCqszwud1Ir7xBhQG_wQ-2" value="phoneNumber" style="rounded=0;whiteSpace=wrap;html=1;" vertex="1" parent="1">
          <mxGeometry x="-520" y="650" width="120" height="60" as="geometry" />
        </mxCell>
        <mxCell id="UCqszwud1Ir7xBhQG_wQ-3" style="edgeStyle=orthogonalEdgeStyle;rounded=0;orthogonalLoop=1;jettySize=auto;html=1;exitX=0;exitY=0.5;exitDx=0;exitDy=0;entryX=1;entryY=0.5;entryDx=0;entryDy=0;" edge="1" parent="1" source="UCqszwud1Ir7xBhQG_wQ-5" target="UCqszwud1Ir7xBhQG_wQ-7">
          <mxGeometry relative="1" as="geometry" />
        </mxCell>
        <mxCell id="UCqszwud1Ir7xBhQG_wQ-4" style="edgeStyle=orthogonalEdgeStyle;rounded=0;orthogonalLoop=1;jettySize=auto;html=1;exitX=0.5;exitY=1;exitDx=0;exitDy=0;entryX=0.5;entryY=0;entryDx=0;entryDy=0;" edge="1" parent="1" source="UCqszwud1Ir7xBhQG_wQ-5" target="UCqszwud1Ir7xBhQG_wQ-11">
          <mxGeometry relative="1" as="geometry" />
        </mxCell>
        <mxCell id="UCqszwud1Ir7xBhQG_wQ-5" value="Scaffold" style="rounded=0;whiteSpace=wrap;html=1;" vertex="1" parent="1">
          <mxGeometry x="-520" y="750" width="120" height="60" as="geometry" />
        </mxCell>
        <mxCell id="UCqszwud1Ir7xBhQG_wQ-6" style="edgeStyle=orthogonalEdgeStyle;rounded=0;orthogonalLoop=1;jettySize=auto;html=1;exitX=0.5;exitY=1;exitDx=0;exitDy=0;entryX=0.5;entryY=0;entryDx=0;entryDy=0;" edge="1" parent="1" source="UCqszwud1Ir7xBhQG_wQ-7" target="UCqszwud1Ir7xBhQG_wQ-12">
          <mxGeometry relative="1" as="geometry" />
        </mxCell>
        <mxCell id="UCqszwud1Ir7xBhQG_wQ-7" value="AppBar" style="rounded=0;whiteSpace=wrap;html=1;" vertex="1" parent="1">
          <mxGeometry x="-690" y="750" width="120" height="60" as="geometry" />
        </mxCell>
        <mxCell id="UCqszwud1Ir7xBhQG_wQ-8" style="edgeStyle=orthogonalEdgeStyle;rounded=0;orthogonalLoop=1;jettySize=auto;html=1;exitX=0.25;exitY=1;exitDx=0;exitDy=0;entryX=0.75;entryY=0;entryDx=0;entryDy=0;" edge="1" parent="1" source="UCqszwud1Ir7xBhQG_wQ-11" target="UCqszwud1Ir7xBhQG_wQ-14">
          <mxGeometry relative="1" as="geometry" />
        </mxCell>
        <mxCell id="UCqszwud1Ir7xBhQG_wQ-9" style="edgeStyle=orthogonalEdgeStyle;rounded=0;orthogonalLoop=1;jettySize=auto;html=1;exitX=0.5;exitY=1;exitDx=0;exitDy=0;entryX=0.5;entryY=0;entryDx=0;entryDy=0;" edge="1" parent="1" source="UCqszwud1Ir7xBhQG_wQ-11" target="UCqszwud1Ir7xBhQG_wQ-13">
          <mxGeometry relative="1" as="geometry" />
        </mxCell>
        <mxCell id="UCqszwud1Ir7xBhQG_wQ-10" style="edgeStyle=orthogonalEdgeStyle;rounded=0;orthogonalLoop=1;jettySize=auto;html=1;exitX=1;exitY=0.5;exitDx=0;exitDy=0;entryX=0.5;entryY=0;entryDx=0;entryDy=0;" edge="1" parent="1" source="UCqszwud1Ir7xBhQG_wQ-11" target="UCqszwud1Ir7xBhQG_wQ-15">
          <mxGeometry relative="1" as="geometry" />
        </mxCell>
        <mxCell id="UCqszwud1Ir7xBhQG_wQ-11" value="Column" style="rounded=0;whiteSpace=wrap;html=1;" vertex="1" parent="1">
          <mxGeometry x="-520" y="850" width="120" height="60" as="geometry" />
        </mxCell>
        <mxCell id="UCqszwud1Ir7xBhQG_wQ-12" value="Text" style="rounded=0;whiteSpace=wrap;html=1;" vertex="1" parent="1">
          <mxGeometry x="-690" y="850" width="120" height="60" as="geometry" />
        </mxCell>
        <mxCell id="UCqszwud1Ir7xBhQG_wQ-13" value="TextFormField" style="rounded=0;whiteSpace=wrap;html=1;" vertex="1" parent="1">
          <mxGeometry x="-510" y="950" width="120" height="60" as="geometry" />
        </mxCell>
        <mxCell id="UCqszwud1Ir7xBhQG_wQ-14" value="TextFormField" style="rounded=0;whiteSpace=wrap;html=1;" vertex="1" parent="1">
          <mxGeometry x="-650" y="950" width="120" height="60" as="geometry" />
        </mxCell>
        <mxCell id="UCqszwud1Ir7xBhQG_wQ-15" value="CustomButton" style="rounded=0;whiteSpace=wrap;html=1;" vertex="1" parent="1">
          <mxGeometry x="-370" y="950" width="120" height="60" as="geometry" />
        </mxCell>
        <mxCell id="UCqszwud1Ir7xBhQG_wQ-18" style="edgeStyle=orthogonalEdgeStyle;rounded=0;orthogonalLoop=1;jettySize=auto;html=1;exitX=0.5;exitY=1;exitDx=0;exitDy=0;entryX=0.5;entryY=0;entryDx=0;entryDy=0;" edge="1" parent="1" source="UCqszwud1Ir7xBhQG_wQ-19" target="UCqszwud1Ir7xBhQG_wQ-22">
          <mxGeometry relative="1" as="geometry" />
        </mxCell>
        <mxCell id="UCqszwud1Ir7xBhQG_wQ-19" value="profile" style="rounded=0;whiteSpace=wrap;html=1;" vertex="1" parent="1">
          <mxGeometry x="-1610" y="90" width="120" height="60" as="geometry" />
        </mxCell>
        <mxCell id="UCqszwud1Ir7xBhQG_wQ-20" style="edgeStyle=orthogonalEdgeStyle;rounded=0;orthogonalLoop=1;jettySize=auto;html=1;exitX=0;exitY=0.5;exitDx=0;exitDy=0;entryX=1;entryY=0.5;entryDx=0;entryDy=0;" edge="1" parent="1" source="UCqszwud1Ir7xBhQG_wQ-22" target="UCqszwud1Ir7xBhQG_wQ-24">
          <mxGeometry relative="1" as="geometry" />
        </mxCell>
        <mxCell id="UCqszwud1Ir7xBhQG_wQ-21" style="edgeStyle=orthogonalEdgeStyle;rounded=0;orthogonalLoop=1;jettySize=auto;html=1;exitX=0.5;exitY=1;exitDx=0;exitDy=0;entryX=0.5;entryY=0;entryDx=0;entryDy=0;" edge="1" parent="1" source="UCqszwud1Ir7xBhQG_wQ-22" target="UCqszwud1Ir7xBhQG_wQ-28">
          <mxGeometry relative="1" as="geometry" />
        </mxCell>
        <mxCell id="UCqszwud1Ir7xBhQG_wQ-38" style="edgeStyle=orthogonalEdgeStyle;rounded=0;orthogonalLoop=1;jettySize=auto;html=1;exitX=1;exitY=0.5;exitDx=0;exitDy=0;" edge="1" parent="1" source="UCqszwud1Ir7xBhQG_wQ-22" target="UCqszwud1Ir7xBhQG_wQ-37">
          <mxGeometry relative="1" as="geometry" />
        </mxCell>
        <mxCell id="UCqszwud1Ir7xBhQG_wQ-22" value="Scaffold" style="rounded=0;whiteSpace=wrap;html=1;" vertex="1" parent="1">
          <mxGeometry x="-1610" y="190" width="120" height="60" as="geometry" />
        </mxCell>
        <mxCell id="UCqszwud1Ir7xBhQG_wQ-23" style="edgeStyle=orthogonalEdgeStyle;rounded=0;orthogonalLoop=1;jettySize=auto;html=1;exitX=0.5;exitY=1;exitDx=0;exitDy=0;entryX=0.5;entryY=0;entryDx=0;entryDy=0;" edge="1" parent="1" source="UCqszwud1Ir7xBhQG_wQ-24" target="UCqszwud1Ir7xBhQG_wQ-29">
          <mxGeometry relative="1" as="geometry" />
        </mxCell>
        <mxCell id="UCqszwud1Ir7xBhQG_wQ-24" value="AppBar" style="rounded=0;whiteSpace=wrap;html=1;" vertex="1" parent="1">
          <mxGeometry x="-1780" y="190" width="120" height="60" as="geometry" />
        </mxCell>
        <mxCell id="UCqszwud1Ir7xBhQG_wQ-25" style="edgeStyle=orthogonalEdgeStyle;rounded=0;orthogonalLoop=1;jettySize=auto;html=1;exitX=0.25;exitY=1;exitDx=0;exitDy=0;entryX=0.75;entryY=0;entryDx=0;entryDy=0;" edge="1" parent="1" source="UCqszwud1Ir7xBhQG_wQ-28" target="UCqszwud1Ir7xBhQG_wQ-31">
          <mxGeometry relative="1" as="geometry" />
        </mxCell>
        <mxCell id="UCqszwud1Ir7xBhQG_wQ-26" style="edgeStyle=orthogonalEdgeStyle;rounded=0;orthogonalLoop=1;jettySize=auto;html=1;exitX=0.5;exitY=1;exitDx=0;exitDy=0;entryX=0.5;entryY=0;entryDx=0;entryDy=0;" edge="1" parent="1" source="UCqszwud1Ir7xBhQG_wQ-28" target="UCqszwud1Ir7xBhQG_wQ-30">
          <mxGeometry relative="1" as="geometry" />
        </mxCell>
        <mxCell id="UCqszwud1Ir7xBhQG_wQ-27" style="edgeStyle=orthogonalEdgeStyle;rounded=0;orthogonalLoop=1;jettySize=auto;html=1;exitX=1;exitY=0.5;exitDx=0;exitDy=0;entryX=0.5;entryY=0;entryDx=0;entryDy=0;" edge="1" parent="1" source="UCqszwud1Ir7xBhQG_wQ-28" target="UCqszwud1Ir7xBhQG_wQ-32">
          <mxGeometry relative="1" as="geometry" />
        </mxCell>
        <mxCell id="UCqszwud1Ir7xBhQG_wQ-34" style="edgeStyle=orthogonalEdgeStyle;rounded=0;orthogonalLoop=1;jettySize=auto;html=1;exitX=1;exitY=0.75;exitDx=0;exitDy=0;entryX=0.5;entryY=0;entryDx=0;entryDy=0;" edge="1" parent="1" source="UCqszwud1Ir7xBhQG_wQ-28" target="UCqszwud1Ir7xBhQG_wQ-33">
          <mxGeometry relative="1" as="geometry" />
        </mxCell>
        <mxCell id="UCqszwud1Ir7xBhQG_wQ-36" style="edgeStyle=orthogonalEdgeStyle;rounded=0;orthogonalLoop=1;jettySize=auto;html=1;exitX=0;exitY=0.5;exitDx=0;exitDy=0;entryX=0.5;entryY=0;entryDx=0;entryDy=0;" edge="1" parent="1" source="UCqszwud1Ir7xBhQG_wQ-28" target="UCqszwud1Ir7xBhQG_wQ-35">
          <mxGeometry relative="1" as="geometry" />
        </mxCell>
        <mxCell id="UCqszwud1Ir7xBhQG_wQ-28" value="ListView" style="rounded=0;whiteSpace=wrap;html=1;" vertex="1" parent="1">
          <mxGeometry x="-1610" y="290" width="120" height="60" as="geometry" />
        </mxCell>
        <mxCell id="UCqszwud1Ir7xBhQG_wQ-29" value="Text" style="rounded=0;whiteSpace=wrap;html=1;" vertex="1" parent="1">
          <mxGeometry x="-1780" y="290" width="120" height="60" as="geometry" />
        </mxCell>
        <mxCell id="UCqszwud1Ir7xBhQG_wQ-30" value="ListTile" style="rounded=0;whiteSpace=wrap;html=1;" vertex="1" parent="1">
          <mxGeometry x="-1610" y="400" width="120" height="60" as="geometry" />
        </mxCell>
        <mxCell id="UCqszwud1Ir7xBhQG_wQ-31" value="CircleAvatar" style="rounded=0;whiteSpace=wrap;html=1;" vertex="1" parent="1">
          <mxGeometry x="-1774" y="390" width="120" height="60" as="geometry" />
        </mxCell>
        <mxCell id="UCqszwud1Ir7xBhQG_wQ-32" value="ListTile" style="rounded=0;whiteSpace=wrap;html=1;" vertex="1" parent="1">
          <mxGeometry x="-1370" y="390" width="120" height="60" as="geometry" />
        </mxCell>
        <mxCell id="UCqszwud1Ir7xBhQG_wQ-33" value="ListTile" style="rounded=0;whiteSpace=wrap;html=1;" vertex="1" parent="1">
          <mxGeometry x="-1480" y="480" width="120" height="60" as="geometry" />
        </mxCell>
        <mxCell id="UCqszwud1Ir7xBhQG_wQ-35" value="CustomButton" style="rounded=0;whiteSpace=wrap;html=1;" vertex="1" parent="1">
          <mxGeometry x="-1690" y="510" width="120" height="60" as="geometry" />
        </mxCell>
        <mxCell id="UCqszwud1Ir7xBhQG_wQ-37" value="BottomNavBar" style="rounded=0;whiteSpace=wrap;html=1;" vertex="1" parent="1">
          <mxGeometry x="-1420" y="190" width="120" height="60" as="geometry" />
        </mxCell>
        <mxCell id="UCqszwud1Ir7xBhQG_wQ-55" style="edgeStyle=orthogonalEdgeStyle;rounded=0;orthogonalLoop=1;jettySize=auto;html=1;exitX=0.5;exitY=1;exitDx=0;exitDy=0;entryX=0.5;entryY=0;entryDx=0;entryDy=0;" edge="1" parent="1" source="UCqszwud1Ir7xBhQG_wQ-56" target="UCqszwud1Ir7xBhQG_wQ-59">
          <mxGeometry relative="1" as="geometry" />
        </mxCell>
        <mxCell id="UCqszwud1Ir7xBhQG_wQ-56" value="register" style="rounded=0;whiteSpace=wrap;html=1;" vertex="1" parent="1">
          <mxGeometry x="-1240" y="680" width="120" height="60" as="geometry" />
        </mxCell>
        <mxCell id="UCqszwud1Ir7xBhQG_wQ-57" style="edgeStyle=orthogonalEdgeStyle;rounded=0;orthogonalLoop=1;jettySize=auto;html=1;exitX=0;exitY=0.5;exitDx=0;exitDy=0;entryX=1;entryY=0.5;entryDx=0;entryDy=0;" edge="1" parent="1" source="UCqszwud1Ir7xBhQG_wQ-59" target="UCqszwud1Ir7xBhQG_wQ-61">
          <mxGeometry relative="1" as="geometry" />
        </mxCell>
        <mxCell id="UCqszwud1Ir7xBhQG_wQ-58" style="edgeStyle=orthogonalEdgeStyle;rounded=0;orthogonalLoop=1;jettySize=auto;html=1;exitX=0.5;exitY=1;exitDx=0;exitDy=0;entryX=0.5;entryY=0;entryDx=0;entryDy=0;" edge="1" parent="1" source="UCqszwud1Ir7xBhQG_wQ-59" target="UCqszwud1Ir7xBhQG_wQ-65">
          <mxGeometry relative="1" as="geometry" />
        </mxCell>
        <mxCell id="UCqszwud1Ir7xBhQG_wQ-59" value="Scaffold" style="rounded=0;whiteSpace=wrap;html=1;" vertex="1" parent="1">
          <mxGeometry x="-1240" y="780" width="120" height="60" as="geometry" />
        </mxCell>
        <mxCell id="UCqszwud1Ir7xBhQG_wQ-60" style="edgeStyle=orthogonalEdgeStyle;rounded=0;orthogonalLoop=1;jettySize=auto;html=1;exitX=0.5;exitY=1;exitDx=0;exitDy=0;entryX=0.5;entryY=0;entryDx=0;entryDy=0;" edge="1" parent="1" source="UCqszwud1Ir7xBhQG_wQ-61" target="UCqszwud1Ir7xBhQG_wQ-66">
          <mxGeometry relative="1" as="geometry" />
        </mxCell>
        <mxCell id="UCqszwud1Ir7xBhQG_wQ-61" value="AppBar" style="rounded=0;whiteSpace=wrap;html=1;" vertex="1" parent="1">
          <mxGeometry x="-1410" y="780" width="120" height="60" as="geometry" />
        </mxCell>
        <mxCell id="UCqszwud1Ir7xBhQG_wQ-62" style="edgeStyle=orthogonalEdgeStyle;rounded=0;orthogonalLoop=1;jettySize=auto;html=1;exitX=0.25;exitY=1;exitDx=0;exitDy=0;entryX=0.75;entryY=0;entryDx=0;entryDy=0;" edge="1" parent="1" source="UCqszwud1Ir7xBhQG_wQ-65" target="UCqszwud1Ir7xBhQG_wQ-68">
          <mxGeometry relative="1" as="geometry" />
        </mxCell>
        <mxCell id="UCqszwud1Ir7xBhQG_wQ-63" style="edgeStyle=orthogonalEdgeStyle;rounded=0;orthogonalLoop=1;jettySize=auto;html=1;exitX=0.5;exitY=1;exitDx=0;exitDy=0;entryX=0.5;entryY=0;entryDx=0;entryDy=0;" edge="1" parent="1" source="UCqszwud1Ir7xBhQG_wQ-65" target="UCqszwud1Ir7xBhQG_wQ-67">
          <mxGeometry relative="1" as="geometry" />
        </mxCell>
        <mxCell id="UCqszwud1Ir7xBhQG_wQ-64" style="edgeStyle=orthogonalEdgeStyle;rounded=0;orthogonalLoop=1;jettySize=auto;html=1;exitX=1;exitY=0.5;exitDx=0;exitDy=0;entryX=0.5;entryY=0;entryDx=0;entryDy=0;" edge="1" parent="1" source="UCqszwud1Ir7xBhQG_wQ-65" target="UCqszwud1Ir7xBhQG_wQ-69">
          <mxGeometry relative="1" as="geometry" />
        </mxCell>
        <mxCell id="UCqszwud1Ir7xBhQG_wQ-71" style="edgeStyle=orthogonalEdgeStyle;rounded=0;orthogonalLoop=1;jettySize=auto;html=1;exitX=1;exitY=0.25;exitDx=0;exitDy=0;entryX=0;entryY=0.25;entryDx=0;entryDy=0;" edge="1" parent="1" source="UCqszwud1Ir7xBhQG_wQ-65" target="UCqszwud1Ir7xBhQG_wQ-70">
          <mxGeometry relative="1" as="geometry" />
        </mxCell>
        <mxCell id="UCqszwud1Ir7xBhQG_wQ-65" value="Column" style="rounded=0;whiteSpace=wrap;html=1;" vertex="1" parent="1">
          <mxGeometry x="-1240" y="880" width="120" height="60" as="geometry" />
        </mxCell>
        <mxCell id="UCqszwud1Ir7xBhQG_wQ-66" value="Text" style="rounded=0;whiteSpace=wrap;html=1;" vertex="1" parent="1">
          <mxGeometry x="-1410" y="880" width="120" height="60" as="geometry" />
        </mxCell>
        <mxCell id="UCqszwud1Ir7xBhQG_wQ-67" value="TextFormField" style="rounded=0;whiteSpace=wrap;html=1;" vertex="1" parent="1">
          <mxGeometry x="-1230" y="980" width="120" height="60" as="geometry" />
        </mxCell>
        <mxCell id="UCqszwud1Ir7xBhQG_wQ-68" value="TextFormField" style="rounded=0;whiteSpace=wrap;html=1;" vertex="1" parent="1">
          <mxGeometry x="-1370" y="980" width="120" height="60" as="geometry" />
        </mxCell>
        <mxCell id="UCqszwud1Ir7xBhQG_wQ-69" value="CustomButton" style="rounded=0;whiteSpace=wrap;html=1;" vertex="1" parent="1">
          <mxGeometry x="-1090" y="980" width="120" height="60" as="geometry" />
        </mxCell>
        <mxCell id="UCqszwud1Ir7xBhQG_wQ-70" value="TextFormField" style="rounded=0;whiteSpace=wrap;html=1;" vertex="1" parent="1">
          <mxGeometry x="-1000" y="870" width="120" height="60" as="geometry" />
        </mxCell>
        <mxCell id="UCqszwud1Ir7xBhQG_wQ-74" style="edgeStyle=orthogonalEdgeStyle;rounded=0;orthogonalLoop=1;jettySize=auto;html=1;exitX=0.5;exitY=1;exitDx=0;exitDy=0;entryX=0.5;entryY=0;entryDx=0;entryDy=0;" edge="1" parent="1" source="UCqszwud1Ir7xBhQG_wQ-75" target="UCqszwud1Ir7xBhQG_wQ-78">
          <mxGeometry relative="1" as="geometry" />
        </mxCell>
        <mxCell id="UCqszwud1Ir7xBhQG_wQ-75" value="resetPassword" style="rounded=0;whiteSpace=wrap;html=1;" vertex="1" parent="1">
          <mxGeometry x="1040" y="-380" width="120" height="60" as="geometry" />
        </mxCell>
        <mxCell id="UCqszwud1Ir7xBhQG_wQ-76" style="edgeStyle=orthogonalEdgeStyle;rounded=0;orthogonalLoop=1;jettySize=auto;html=1;exitX=0;exitY=0.5;exitDx=0;exitDy=0;entryX=1;entryY=0.5;entryDx=0;entryDy=0;" edge="1" parent="1" source="UCqszwud1Ir7xBhQG_wQ-78" target="UCqszwud1Ir7xBhQG_wQ-80">
          <mxGeometry relative="1" as="geometry" />
        </mxCell>
        <mxCell id="UCqszwud1Ir7xBhQG_wQ-77" style="edgeStyle=orthogonalEdgeStyle;rounded=0;orthogonalLoop=1;jettySize=auto;html=1;exitX=0.5;exitY=1;exitDx=0;exitDy=0;entryX=0.5;entryY=0;entryDx=0;entryDy=0;" edge="1" parent="1" source="UCqszwud1Ir7xBhQG_wQ-78" target="UCqszwud1Ir7xBhQG_wQ-84">
          <mxGeometry relative="1" as="geometry" />
        </mxCell>
        <mxCell id="UCqszwud1Ir7xBhQG_wQ-78" value="Scaffold" style="rounded=0;whiteSpace=wrap;html=1;" vertex="1" parent="1">
          <mxGeometry x="1040" y="-280" width="120" height="60" as="geometry" />
        </mxCell>
        <mxCell id="UCqszwud1Ir7xBhQG_wQ-79" style="edgeStyle=orthogonalEdgeStyle;rounded=0;orthogonalLoop=1;jettySize=auto;html=1;exitX=0.5;exitY=1;exitDx=0;exitDy=0;entryX=0.5;entryY=0;entryDx=0;entryDy=0;" edge="1" parent="1" source="UCqszwud1Ir7xBhQG_wQ-80" target="UCqszwud1Ir7xBhQG_wQ-85">
          <mxGeometry relative="1" as="geometry" />
        </mxCell>
        <mxCell id="UCqszwud1Ir7xBhQG_wQ-80" value="AppBar" style="rounded=0;whiteSpace=wrap;html=1;" vertex="1" parent="1">
          <mxGeometry x="870" y="-280" width="120" height="60" as="geometry" />
        </mxCell>
        <mxCell id="UCqszwud1Ir7xBhQG_wQ-81" style="edgeStyle=orthogonalEdgeStyle;rounded=0;orthogonalLoop=1;jettySize=auto;html=1;exitX=0.25;exitY=1;exitDx=0;exitDy=0;entryX=0.75;entryY=0;entryDx=0;entryDy=0;" edge="1" parent="1" source="UCqszwud1Ir7xBhQG_wQ-84" target="UCqszwud1Ir7xBhQG_wQ-87">
          <mxGeometry relative="1" as="geometry" />
        </mxCell>
        <mxCell id="UCqszwud1Ir7xBhQG_wQ-82" style="edgeStyle=orthogonalEdgeStyle;rounded=0;orthogonalLoop=1;jettySize=auto;html=1;exitX=0.5;exitY=1;exitDx=0;exitDy=0;entryX=0.5;entryY=0;entryDx=0;entryDy=0;" edge="1" parent="1" source="UCqszwud1Ir7xBhQG_wQ-84" target="UCqszwud1Ir7xBhQG_wQ-86">
          <mxGeometry relative="1" as="geometry" />
        </mxCell>
        <mxCell id="UCqszwud1Ir7xBhQG_wQ-83" style="edgeStyle=orthogonalEdgeStyle;rounded=0;orthogonalLoop=1;jettySize=auto;html=1;exitX=1;exitY=0.5;exitDx=0;exitDy=0;entryX=0.5;entryY=0;entryDx=0;entryDy=0;" edge="1" parent="1" source="UCqszwud1Ir7xBhQG_wQ-84" target="UCqszwud1Ir7xBhQG_wQ-88">
          <mxGeometry relative="1" as="geometry" />
        </mxCell>
        <mxCell id="UCqszwud1Ir7xBhQG_wQ-84" value="Column" style="rounded=0;whiteSpace=wrap;html=1;" vertex="1" parent="1">
          <mxGeometry x="1040" y="-180" width="120" height="60" as="geometry" />
        </mxCell>
        <mxCell id="UCqszwud1Ir7xBhQG_wQ-85" value="Text" style="rounded=0;whiteSpace=wrap;html=1;" vertex="1" parent="1">
          <mxGeometry x="870" y="-180" width="120" height="60" as="geometry" />
        </mxCell>
        <mxCell id="UCqszwud1Ir7xBhQG_wQ-86" value="TextFormField" style="rounded=0;whiteSpace=wrap;html=1;" vertex="1" parent="1">
          <mxGeometry x="1050" y="-80" width="120" height="60" as="geometry" />
        </mxCell>
        <mxCell id="UCqszwud1Ir7xBhQG_wQ-87" value="TextFormField" style="rounded=0;whiteSpace=wrap;html=1;" vertex="1" parent="1">
          <mxGeometry x="910" y="-80" width="120" height="60" as="geometry" />
        </mxCell>
        <mxCell id="UCqszwud1Ir7xBhQG_wQ-88" value="CustomButton" style="rounded=0;whiteSpace=wrap;html=1;" vertex="1" parent="1">
          <mxGeometry x="1190" y="-80" width="120" height="60" as="geometry" />
        </mxCell>
        <mxCell id="UCqszwud1Ir7xBhQG_wQ-90" style="edgeStyle=orthogonalEdgeStyle;rounded=0;orthogonalLoop=1;jettySize=auto;html=1;exitX=0.5;exitY=1;exitDx=0;exitDy=0;entryX=0.5;entryY=0;entryDx=0;entryDy=0;" edge="1" parent="1" source="UCqszwud1Ir7xBhQG_wQ-91" target="UCqszwud1Ir7xBhQG_wQ-94">
          <mxGeometry relative="1" as="geometry" />
        </mxCell>
        <mxCell id="UCqszwud1Ir7xBhQG_wQ-91" value="verifyEmail" style="rounded=0;whiteSpace=wrap;html=1;" vertex="1" parent="1">
          <mxGeometry x="-150" y="-440" width="120" height="60" as="geometry" />
        </mxCell>
        <mxCell id="UCqszwud1Ir7xBhQG_wQ-92" style="edgeStyle=orthogonalEdgeStyle;rounded=0;orthogonalLoop=1;jettySize=auto;html=1;exitX=0;exitY=0.5;exitDx=0;exitDy=0;entryX=1;entryY=0.5;entryDx=0;entryDy=0;" edge="1" parent="1" source="UCqszwud1Ir7xBhQG_wQ-94" target="UCqszwud1Ir7xBhQG_wQ-96">
          <mxGeometry relative="1" as="geometry" />
        </mxCell>
        <mxCell id="UCqszwud1Ir7xBhQG_wQ-93" style="edgeStyle=orthogonalEdgeStyle;rounded=0;orthogonalLoop=1;jettySize=auto;html=1;exitX=0.5;exitY=1;exitDx=0;exitDy=0;entryX=0.5;entryY=0;entryDx=0;entryDy=0;" edge="1" parent="1" source="UCqszwud1Ir7xBhQG_wQ-94" target="UCqszwud1Ir7xBhQG_wQ-100">
          <mxGeometry relative="1" as="geometry" />
        </mxCell>
        <mxCell id="UCqszwud1Ir7xBhQG_wQ-94" value="Scaffold" style="rounded=0;whiteSpace=wrap;html=1;" vertex="1" parent="1">
          <mxGeometry x="-150" y="-340" width="120" height="60" as="geometry" />
        </mxCell>
        <mxCell id="UCqszwud1Ir7xBhQG_wQ-95" style="edgeStyle=orthogonalEdgeStyle;rounded=0;orthogonalLoop=1;jettySize=auto;html=1;exitX=0.5;exitY=1;exitDx=0;exitDy=0;entryX=0.5;entryY=0;entryDx=0;entryDy=0;" edge="1" parent="1" source="UCqszwud1Ir7xBhQG_wQ-96" target="UCqszwud1Ir7xBhQG_wQ-101">
          <mxGeometry relative="1" as="geometry" />
        </mxCell>
        <mxCell id="UCqszwud1Ir7xBhQG_wQ-96" value="AppBar" style="rounded=0;whiteSpace=wrap;html=1;" vertex="1" parent="1">
          <mxGeometry x="-320" y="-340" width="120" height="60" as="geometry" />
        </mxCell>
        <mxCell id="UCqszwud1Ir7xBhQG_wQ-97" style="edgeStyle=orthogonalEdgeStyle;rounded=0;orthogonalLoop=1;jettySize=auto;html=1;exitX=0.25;exitY=1;exitDx=0;exitDy=0;entryX=0.75;entryY=0;entryDx=0;entryDy=0;" edge="1" parent="1" source="UCqszwud1Ir7xBhQG_wQ-100" target="UCqszwud1Ir7xBhQG_wQ-103">
          <mxGeometry relative="1" as="geometry" />
        </mxCell>
        <mxCell id="UCqszwud1Ir7xBhQG_wQ-98" style="edgeStyle=orthogonalEdgeStyle;rounded=0;orthogonalLoop=1;jettySize=auto;html=1;exitX=0.5;exitY=1;exitDx=0;exitDy=0;entryX=0.5;entryY=0;entryDx=0;entryDy=0;" edge="1" parent="1" source="UCqszwud1Ir7xBhQG_wQ-100" target="UCqszwud1Ir7xBhQG_wQ-102">
          <mxGeometry relative="1" as="geometry" />
        </mxCell>
        <mxCell id="UCqszwud1Ir7xBhQG_wQ-99" style="edgeStyle=orthogonalEdgeStyle;rounded=0;orthogonalLoop=1;jettySize=auto;html=1;exitX=1;exitY=0.5;exitDx=0;exitDy=0;entryX=0.5;entryY=0;entryDx=0;entryDy=0;" edge="1" parent="1" source="UCqszwud1Ir7xBhQG_wQ-100" target="UCqszwud1Ir7xBhQG_wQ-104">
          <mxGeometry relative="1" as="geometry" />
        </mxCell>
        <mxCell id="UCqszwud1Ir7xBhQG_wQ-100" value="Column" style="rounded=0;whiteSpace=wrap;html=1;" vertex="1" parent="1">
          <mxGeometry x="-150" y="-240" width="120" height="60" as="geometry" />
        </mxCell>
        <mxCell id="UCqszwud1Ir7xBhQG_wQ-101" value="Text" style="rounded=0;whiteSpace=wrap;html=1;" vertex="1" parent="1">
          <mxGeometry x="-320" y="-240" width="120" height="60" as="geometry" />
        </mxCell>
        <mxCell id="UCqszwud1Ir7xBhQG_wQ-102" value="TextFormField" style="rounded=0;whiteSpace=wrap;html=1;" vertex="1" parent="1">
          <mxGeometry x="-140" y="-140" width="120" height="60" as="geometry" />
        </mxCell>
        <mxCell id="UCqszwud1Ir7xBhQG_wQ-103" value="Text" style="rounded=0;whiteSpace=wrap;html=1;" vertex="1" parent="1">
          <mxGeometry x="-280" y="-140" width="120" height="60" as="geometry" />
        </mxCell>
        <mxCell id="UCqszwud1Ir7xBhQG_wQ-104" value="CustomButton" style="rounded=0;whiteSpace=wrap;html=1;" vertex="1" parent="1">
          <mxGeometry y="-140" width="120" height="60" as="geometry" />
        </mxCell>
        <mxCell id="UCqszwud1Ir7xBhQG_wQ-123" style="edgeStyle=orthogonalEdgeStyle;rounded=0;orthogonalLoop=1;jettySize=auto;html=1;exitX=0.5;exitY=1;exitDx=0;exitDy=0;entryX=0.5;entryY=0;entryDx=0;entryDy=0;" edge="1" parent="1" source="UCqszwud1Ir7xBhQG_wQ-121" target="UCqszwud1Ir7xBhQG_wQ-122">
          <mxGeometry relative="1" as="geometry" />
        </mxCell>
        <mxCell id="UCqszwud1Ir7xBhQG_wQ-121" value="splash" style="rounded=0;whiteSpace=wrap;html=1;" vertex="1" parent="1">
          <mxGeometry x="550" y="-890" width="120" height="60" as="geometry" />
        </mxCell>
        <mxCell id="UCqszwud1Ir7xBhQG_wQ-127" style="edgeStyle=orthogonalEdgeStyle;rounded=0;orthogonalLoop=1;jettySize=auto;html=1;exitX=0.5;exitY=1;exitDx=0;exitDy=0;entryX=0.5;entryY=0;entryDx=0;entryDy=0;" edge="1" parent="1" source="UCqszwud1Ir7xBhQG_wQ-122" target="UCqszwud1Ir7xBhQG_wQ-124">
          <mxGeometry relative="1" as="geometry" />
        </mxCell>
        <mxCell id="UCqszwud1Ir7xBhQG_wQ-122" value="Scaffold" style="rounded=0;whiteSpace=wrap;html=1;" vertex="1" parent="1">
          <mxGeometry x="550" y="-800" width="120" height="60" as="geometry" />
        </mxCell>
        <mxCell id="UCqszwud1Ir7xBhQG_wQ-128" style="edgeStyle=orthogonalEdgeStyle;rounded=0;orthogonalLoop=1;jettySize=auto;html=1;exitX=0;exitY=0.5;exitDx=0;exitDy=0;entryX=0.5;entryY=0;entryDx=0;entryDy=0;" edge="1" parent="1" source="UCqszwud1Ir7xBhQG_wQ-124" target="UCqszwud1Ir7xBhQG_wQ-125">
          <mxGeometry relative="1" as="geometry" />
        </mxCell>
        <mxCell id="UCqszwud1Ir7xBhQG_wQ-129" style="edgeStyle=orthogonalEdgeStyle;rounded=0;orthogonalLoop=1;jettySize=auto;html=1;exitX=1;exitY=0.5;exitDx=0;exitDy=0;entryX=0.75;entryY=0;entryDx=0;entryDy=0;" edge="1" parent="1" source="UCqszwud1Ir7xBhQG_wQ-124" target="UCqszwud1Ir7xBhQG_wQ-126">
          <mxGeometry relative="1" as="geometry" />
        </mxCell>
        <mxCell id="UCqszwud1Ir7xBhQG_wQ-124" value="Center" style="rounded=0;whiteSpace=wrap;html=1;" vertex="1" parent="1">
          <mxGeometry x="550" y="-710" width="120" height="60" as="geometry" />
        </mxCell>
        <mxCell id="UCqszwud1Ir7xBhQG_wQ-125" value="Image" style="rounded=0;whiteSpace=wrap;html=1;" vertex="1" parent="1">
          <mxGeometry x="430" y="-610" width="120" height="60" as="geometry" />
        </mxCell>
        <mxCell id="UCqszwud1Ir7xBhQG_wQ-126" value="Text" style="rounded=0;whiteSpace=wrap;html=1;" vertex="1" parent="1">
          <mxGeometry x="660" y="-610" width="120" height="60" as="geometry" />
        </mxCell>
        <mxCell id="UCqszwud1Ir7xBhQG_wQ-130" style="edgeStyle=orthogonalEdgeStyle;rounded=0;orthogonalLoop=1;jettySize=auto;html=1;exitX=0.5;exitY=1;exitDx=0;exitDy=0;entryX=0.5;entryY=0;entryDx=0;entryDy=0;" edge="1" parent="1" source="UCqszwud1Ir7xBhQG_wQ-131" target="UCqszwud1Ir7xBhQG_wQ-133">
          <mxGeometry relative="1" as="geometry" />
        </mxCell>
        <mxCell id="UCqszwud1Ir7xBhQG_wQ-131" value="spllash_v2" style="rounded=0;whiteSpace=wrap;html=1;" vertex="1" parent="1">
          <mxGeometry x="1060" y="-930" width="120" height="60" as="geometry" />
        </mxCell>
        <mxCell id="UCqszwud1Ir7xBhQG_wQ-132" style="edgeStyle=orthogonalEdgeStyle;rounded=0;orthogonalLoop=1;jettySize=auto;html=1;exitX=0.5;exitY=1;exitDx=0;exitDy=0;entryX=0.5;entryY=0;entryDx=0;entryDy=0;" edge="1" parent="1" source="UCqszwud1Ir7xBhQG_wQ-133" target="UCqszwud1Ir7xBhQG_wQ-136">
          <mxGeometry relative="1" as="geometry" />
        </mxCell>
        <mxCell id="UCqszwud1Ir7xBhQG_wQ-133" value="Scaffold" style="rounded=0;whiteSpace=wrap;html=1;" vertex="1" parent="1">
          <mxGeometry x="1050" y="-840" width="120" height="60" as="geometry" />
        </mxCell>
        <mxCell id="UCqszwud1Ir7xBhQG_wQ-134" style="edgeStyle=orthogonalEdgeStyle;rounded=0;orthogonalLoop=1;jettySize=auto;html=1;exitX=0;exitY=0.5;exitDx=0;exitDy=0;entryX=0.5;entryY=0;entryDx=0;entryDy=0;" edge="1" parent="1" source="UCqszwud1Ir7xBhQG_wQ-136" target="UCqszwud1Ir7xBhQG_wQ-137">
          <mxGeometry relative="1" as="geometry" />
        </mxCell>
        <mxCell id="UCqszwud1Ir7xBhQG_wQ-135" style="edgeStyle=orthogonalEdgeStyle;rounded=0;orthogonalLoop=1;jettySize=auto;html=1;exitX=1;exitY=0.5;exitDx=0;exitDy=0;entryX=0.75;entryY=0;entryDx=0;entryDy=0;" edge="1" parent="1" source="UCqszwud1Ir7xBhQG_wQ-136" target="UCqszwud1Ir7xBhQG_wQ-138">
          <mxGeometry relative="1" as="geometry" />
        </mxCell>
        <mxCell id="UCqszwud1Ir7xBhQG_wQ-136" value="Center" style="rounded=0;whiteSpace=wrap;html=1;" vertex="1" parent="1">
          <mxGeometry x="1050" y="-750" width="120" height="60" as="geometry" />
        </mxCell>
        <mxCell id="UCqszwud1Ir7xBhQG_wQ-137" value="Image" style="rounded=0;whiteSpace=wrap;html=1;" vertex="1" parent="1">
          <mxGeometry x="930" y="-650" width="120" height="60" as="geometry" />
        </mxCell>
        <mxCell id="UCqszwud1Ir7xBhQG_wQ-138" value="Text" style="rounded=0;whiteSpace=wrap;html=1;" vertex="1" parent="1">
          <mxGeometry x="1160" y="-650" width="120" height="60" as="geometry" />
        </mxCell>
        <mxCell id="UCqszwud1Ir7xBhQG_wQ-142" style="edgeStyle=orthogonalEdgeStyle;rounded=0;orthogonalLoop=1;jettySize=auto;html=1;exitX=0.5;exitY=1;exitDx=0;exitDy=0;entryX=0.5;entryY=0;entryDx=0;entryDy=0;" edge="1" parent="1" source="UCqszwud1Ir7xBhQG_wQ-143" target="UCqszwud1Ir7xBhQG_wQ-146">
          <mxGeometry relative="1" as="geometry" />
        </mxCell>
        <mxCell id="UCqszwud1Ir7xBhQG_wQ-143" value="verifyNumber" style="rounded=0;whiteSpace=wrap;html=1;" vertex="1" parent="1">
          <mxGeometry x="-200" y="-970" width="120" height="60" as="geometry" />
        </mxCell>
        <mxCell id="UCqszwud1Ir7xBhQG_wQ-144" style="edgeStyle=orthogonalEdgeStyle;rounded=0;orthogonalLoop=1;jettySize=auto;html=1;exitX=0;exitY=0.5;exitDx=0;exitDy=0;entryX=1;entryY=0.5;entryDx=0;entryDy=0;" edge="1" parent="1" source="UCqszwud1Ir7xBhQG_wQ-146" target="UCqszwud1Ir7xBhQG_wQ-148">
          <mxGeometry relative="1" as="geometry" />
        </mxCell>
        <mxCell id="UCqszwud1Ir7xBhQG_wQ-145" style="edgeStyle=orthogonalEdgeStyle;rounded=0;orthogonalLoop=1;jettySize=auto;html=1;exitX=0.5;exitY=1;exitDx=0;exitDy=0;entryX=0.5;entryY=0;entryDx=0;entryDy=0;" edge="1" parent="1" source="UCqszwud1Ir7xBhQG_wQ-146" target="UCqszwud1Ir7xBhQG_wQ-152">
          <mxGeometry relative="1" as="geometry" />
        </mxCell>
        <mxCell id="UCqszwud1Ir7xBhQG_wQ-146" value="Scaffold" style="rounded=0;whiteSpace=wrap;html=1;" vertex="1" parent="1">
          <mxGeometry x="-200" y="-870" width="120" height="60" as="geometry" />
        </mxCell>
        <mxCell id="UCqszwud1Ir7xBhQG_wQ-147" style="edgeStyle=orthogonalEdgeStyle;rounded=0;orthogonalLoop=1;jettySize=auto;html=1;exitX=0.5;exitY=1;exitDx=0;exitDy=0;entryX=0.5;entryY=0;entryDx=0;entryDy=0;" edge="1" parent="1" source="UCqszwud1Ir7xBhQG_wQ-148" target="UCqszwud1Ir7xBhQG_wQ-153">
          <mxGeometry relative="1" as="geometry" />
        </mxCell>
        <mxCell id="UCqszwud1Ir7xBhQG_wQ-148" value="AppBar" style="rounded=0;whiteSpace=wrap;html=1;" vertex="1" parent="1">
          <mxGeometry x="-370" y="-870" width="120" height="60" as="geometry" />
        </mxCell>
        <mxCell id="UCqszwud1Ir7xBhQG_wQ-149" style="edgeStyle=orthogonalEdgeStyle;rounded=0;orthogonalLoop=1;jettySize=auto;html=1;exitX=0.25;exitY=1;exitDx=0;exitDy=0;entryX=0.75;entryY=0;entryDx=0;entryDy=0;" edge="1" parent="1" source="UCqszwud1Ir7xBhQG_wQ-152" target="UCqszwud1Ir7xBhQG_wQ-155">
          <mxGeometry relative="1" as="geometry" />
        </mxCell>
        <mxCell id="UCqszwud1Ir7xBhQG_wQ-150" style="edgeStyle=orthogonalEdgeStyle;rounded=0;orthogonalLoop=1;jettySize=auto;html=1;exitX=0.5;exitY=1;exitDx=0;exitDy=0;entryX=0.5;entryY=0;entryDx=0;entryDy=0;" edge="1" parent="1" source="UCqszwud1Ir7xBhQG_wQ-152" target="UCqszwud1Ir7xBhQG_wQ-154">
          <mxGeometry relative="1" as="geometry" />
        </mxCell>
        <mxCell id="UCqszwud1Ir7xBhQG_wQ-151" style="edgeStyle=orthogonalEdgeStyle;rounded=0;orthogonalLoop=1;jettySize=auto;html=1;exitX=1;exitY=0.5;exitDx=0;exitDy=0;entryX=0.5;entryY=0;entryDx=0;entryDy=0;" edge="1" parent="1" source="UCqszwud1Ir7xBhQG_wQ-152" target="UCqszwud1Ir7xBhQG_wQ-156">
          <mxGeometry relative="1" as="geometry" />
        </mxCell>
        <mxCell id="UCqszwud1Ir7xBhQG_wQ-152" value="Column" style="rounded=0;whiteSpace=wrap;html=1;" vertex="1" parent="1">
          <mxGeometry x="-200" y="-770" width="120" height="60" as="geometry" />
        </mxCell>
        <mxCell id="UCqszwud1Ir7xBhQG_wQ-153" value="Text" style="rounded=0;whiteSpace=wrap;html=1;" vertex="1" parent="1">
          <mxGeometry x="-370" y="-770" width="120" height="60" as="geometry" />
        </mxCell>
        <mxCell id="UCqszwud1Ir7xBhQG_wQ-154" value="TextFormField" style="rounded=0;whiteSpace=wrap;html=1;" vertex="1" parent="1">
          <mxGeometry x="-190" y="-670" width="120" height="60" as="geometry" />
        </mxCell>
        <mxCell id="UCqszwud1Ir7xBhQG_wQ-155" value="Text" style="rounded=0;whiteSpace=wrap;html=1;" vertex="1" parent="1">
          <mxGeometry x="-330" y="-670" width="120" height="60" as="geometry" />
        </mxCell>
        <mxCell id="UCqszwud1Ir7xBhQG_wQ-156" value="CustomButton" style="rounded=0;whiteSpace=wrap;html=1;" vertex="1" parent="1">
          <mxGeometry x="-50" y="-670" width="120" height="60" as="geometry" />
        </mxCell>
        <mxCell id="UCqszwud1Ir7xBhQG_wQ-159" style="edgeStyle=orthogonalEdgeStyle;rounded=0;orthogonalLoop=1;jettySize=auto;html=1;exitX=0.5;exitY=1;exitDx=0;exitDy=0;entryX=0.5;entryY=0;entryDx=0;entryDy=0;" edge="1" parent="1" source="UCqszwud1Ir7xBhQG_wQ-160" target="UCqszwud1Ir7xBhQG_wQ-163">
          <mxGeometry relative="1" as="geometry" />
        </mxCell>
        <mxCell id="UCqszwud1Ir7xBhQG_wQ-160" value="welcome" style="rounded=0;whiteSpace=wrap;html=1;" vertex="1" parent="1">
          <mxGeometry x="-690" y="-450" width="120" height="60" as="geometry" />
        </mxCell>
        <mxCell id="UCqszwud1Ir7xBhQG_wQ-161" style="edgeStyle=orthogonalEdgeStyle;rounded=0;orthogonalLoop=1;jettySize=auto;html=1;exitX=0;exitY=0.5;exitDx=0;exitDy=0;entryX=1;entryY=0.5;entryDx=0;entryDy=0;" edge="1" parent="1" source="UCqszwud1Ir7xBhQG_wQ-163" target="UCqszwud1Ir7xBhQG_wQ-165">
          <mxGeometry relative="1" as="geometry" />
        </mxCell>
        <mxCell id="UCqszwud1Ir7xBhQG_wQ-162" style="edgeStyle=orthogonalEdgeStyle;rounded=0;orthogonalLoop=1;jettySize=auto;html=1;exitX=0.5;exitY=1;exitDx=0;exitDy=0;entryX=0.5;entryY=0;entryDx=0;entryDy=0;" edge="1" parent="1" source="UCqszwud1Ir7xBhQG_wQ-163" target="UCqszwud1Ir7xBhQG_wQ-169">
          <mxGeometry relative="1" as="geometry" />
        </mxCell>
        <mxCell id="UCqszwud1Ir7xBhQG_wQ-163" value="Scaffold" style="rounded=0;whiteSpace=wrap;html=1;" vertex="1" parent="1">
          <mxGeometry x="-690" y="-350" width="120" height="60" as="geometry" />
        </mxCell>
        <mxCell id="UCqszwud1Ir7xBhQG_wQ-164" style="edgeStyle=orthogonalEdgeStyle;rounded=0;orthogonalLoop=1;jettySize=auto;html=1;exitX=0.5;exitY=1;exitDx=0;exitDy=0;entryX=0.5;entryY=0;entryDx=0;entryDy=0;" edge="1" parent="1" source="UCqszwud1Ir7xBhQG_wQ-165" target="UCqszwud1Ir7xBhQG_wQ-170">
          <mxGeometry relative="1" as="geometry" />
        </mxCell>
        <mxCell id="UCqszwud1Ir7xBhQG_wQ-165" value="AppBar" style="rounded=0;whiteSpace=wrap;html=1;" vertex="1" parent="1">
          <mxGeometry x="-860" y="-350" width="120" height="60" as="geometry" />
        </mxCell>
        <mxCell id="UCqszwud1Ir7xBhQG_wQ-166" style="edgeStyle=orthogonalEdgeStyle;rounded=0;orthogonalLoop=1;jettySize=auto;html=1;exitX=0.25;exitY=1;exitDx=0;exitDy=0;entryX=0.75;entryY=0;entryDx=0;entryDy=0;" edge="1" parent="1" source="UCqszwud1Ir7xBhQG_wQ-169" target="UCqszwud1Ir7xBhQG_wQ-172">
          <mxGeometry relative="1" as="geometry" />
        </mxCell>
        <mxCell id="UCqszwud1Ir7xBhQG_wQ-167" style="edgeStyle=orthogonalEdgeStyle;rounded=0;orthogonalLoop=1;jettySize=auto;html=1;exitX=0.5;exitY=1;exitDx=0;exitDy=0;entryX=0.5;entryY=0;entryDx=0;entryDy=0;" edge="1" parent="1" source="UCqszwud1Ir7xBhQG_wQ-169" target="UCqszwud1Ir7xBhQG_wQ-171">
          <mxGeometry relative="1" as="geometry" />
        </mxCell>
        <mxCell id="UCqszwud1Ir7xBhQG_wQ-168" style="edgeStyle=orthogonalEdgeStyle;rounded=0;orthogonalLoop=1;jettySize=auto;html=1;exitX=1;exitY=0.5;exitDx=0;exitDy=0;entryX=0.5;entryY=0;entryDx=0;entryDy=0;" edge="1" parent="1" source="UCqszwud1Ir7xBhQG_wQ-169" target="UCqszwud1Ir7xBhQG_wQ-173">
          <mxGeometry relative="1" as="geometry" />
        </mxCell>
        <mxCell id="UCqszwud1Ir7xBhQG_wQ-169" value="Column" style="rounded=0;whiteSpace=wrap;html=1;" vertex="1" parent="1">
          <mxGeometry x="-690" y="-250" width="120" height="60" as="geometry" />
        </mxCell>
        <mxCell id="UCqszwud1Ir7xBhQG_wQ-170" value="Text" style="rounded=0;whiteSpace=wrap;html=1;" vertex="1" parent="1">
          <mxGeometry x="-860" y="-250" width="120" height="60" as="geometry" />
        </mxCell>
        <mxCell id="UCqszwud1Ir7xBhQG_wQ-171" value="Text" style="rounded=0;whiteSpace=wrap;html=1;" vertex="1" parent="1">
          <mxGeometry x="-680" y="-150" width="120" height="60" as="geometry" />
        </mxCell>
        <mxCell id="UCqszwud1Ir7xBhQG_wQ-172" value="IMage" style="rounded=0;whiteSpace=wrap;html=1;" vertex="1" parent="1">
          <mxGeometry x="-820" y="-150" width="120" height="60" as="geometry" />
        </mxCell>
        <mxCell id="UCqszwud1Ir7xBhQG_wQ-173" value="CustomButton" style="rounded=0;whiteSpace=wrap;html=1;" vertex="1" parent="1">
          <mxGeometry x="-540" y="-150" width="120" height="60" as="geometry" />
        </mxCell>
        <mxCell id="UCqszwud1Ir7xBhQG_wQ-175" style="edgeStyle=orthogonalEdgeStyle;rounded=0;orthogonalLoop=1;jettySize=auto;html=1;exitX=0.5;exitY=0;exitDx=0;exitDy=0;entryX=0.165;entryY=-0.013;entryDx=0;entryDy=0;entryPerimeter=0;" edge="1" parent="1" source="UCqszwud1Ir7xBhQG_wQ-160" target="ERL9ZfKcZ3rXcQuw2cY3-1">
          <mxGeometry relative="1" as="geometry" />
        </mxCell>
      </root>
    </mxGraphModel>
  </diagram>
</mxfile>
